<?xml version="1.0" standalone="no"?>
<!DOCTYPE svg PUBLIC "-//W3C//DTD SVG 20010904//EN"
 "http://www.w3.org/TR/2001/REC-SVG-20010904/DTD/svg10.dtd">
<svg version="1.0" xmlns="http://www.w3.org/2000/svg"
 width="660.000000pt" height="660.000000pt" viewBox="0 0 660.000000 660.000000"
 preserveAspectRatio="xMidYMid meet">
<metadata>
Created by potrace 1.11, written by Peter Selinger 2001-2013
</metadata>
<g transform="translate(0.000000,660.000000) scale(0.100000,-0.100000)"
fill="#000000" stroke="none">
<path d="M3099 6595 c-2 -1 -40 -5 -84 -9 -114 -8 -348 -43 -435 -66 -19 -5
-47 -11 -63 -14 -15 -3 -88 -23 -162 -45 -435 -131 -812 -335 -1175 -636 -84
-69 -277 -257 -356 -345 -377 -424 -659 -997 -763 -1555 -46 -244 -55 -354
-56 -625 0 -235 8 -337 36 -510 6 -36 13 -78 16 -95 23 -150 98 -411 169 -592
172 -437 416 -808 753 -1143 302 -300 633 -524 1036 -700 180 -79 512 -177
692 -206 19 -3 45 -8 57 -10 11 -2 41 -7 66 -10 25 -3 56 -8 70 -10 178 -25
726 -25 804 1 6 2 34 6 61 9 28 3 64 8 80 11 130 24 188 35 193 39 4 2 23 7
42 10 19 3 95 24 169 46 421 128 821 343 1158 624 110 91 310 287 395 386 64
75 238 305 238 315 0 3 11 21 24 38 78 103 227 391 309 597 83 208 168 530
193 730 3 30 8 64 10 75 25 130 24 627 0 795 -2 14 -7 43 -10 65 -143 1068
-852 2035 -1839 2509 -256 123 -579 229 -827 271 -130 22 -127 22 -290 41 -44
6 -507 14 -511 9z m121 -240 c-10 -16 -129 -216 -264 -442 l-246 -413 -58 33
c-32 17 -232 129 -445 247 -212 118 -387 218 -387 222 0 9 156 88 280 141 229
97 572 192 770 213 36 3 68 8 71 10 3 2 60 6 125 10 65 4 120 8 122 9 2 2 14
2 27 1 24 -1 24 -1 5 -31z m315 20 c50 -3 108 -8 130 -10 68 -9 101 -14 200
-31 202 -36 432 -105 635 -191 125 -54 280 -132 280 -141 -1 -4 -94 -58 -208
-121 -204 -113 -557 -310 -639 -357 l-42 -24 -261 435 c-143 240 -260 440
-260 445 0 5 17 8 38 5 20 -2 78 -7 127 -10z m-207 -347 c165 -276 365 -614
369 -625 5 -12 0 -14 -23 -9 -177 36 -448 41 -686 11 -14 -2 -41 -6 -59 -10
-26 -6 -31 -4 -26 7 4 12 220 378 369 626 11 17 23 32 28 32 5 0 17 -15 28
-32z m-1624 -139 c-1 -17 -5 -243 -8 -502 -4 -259 -8 -472 -9 -473 -4 -4 -889
-17 -1005 -14 -21 0 -19 4 25 73 208 318 494 618 783 824 150 106 205 141 211
132 3 -5 4 -23 3 -40z m3537 -193 c222 -178 443 -419 613 -668 87 -127 87
-128 59 -129 -70 -2 -997 11 -1000 14 -3 4 -16 968 -14 1015 1 17 204 -121
342 -232z m-2643 -386 c2 -5 -3 -10 -10 -10 -36 0 -265 -107 -383 -178 -75
-45 -186 -123 -246 -173 -26 -22 -49 -39 -52 -39 -3 0 -3 73 -2 163 2 89 4
264 5 388 1 125 3 229 6 232 7 6 678 -370 682 -383z m2092 188 c1 -112 3 -290
4 -395 2 -106 2 -193 0 -193 -3 0 -39 27 -80 60 -170 135 -321 219 -593 331
-14 6 -20 14 -15 18 8 7 675 381 681 381 1 0 2 -91 3 -202z m-1231 -308 c175
-59 310 -202 356 -375 23 -92 18 -224 -14 -307 l-10 -26 -98 31 c-54 17 -100
32 -102 33 -2 2 4 24 12 49 19 56 16 154 -7 208 -35 85 -125 165 -210 188
-148 40 -313 -38 -377 -177 -28 -61 -34 -172 -12 -227 9 -21 14 -39 12 -41
-10 -7 -195 -63 -198 -60 -2 2 -12 27 -21 56 -24 70 -21 240 5 313 52 144 173
269 315 325 103 41 247 45 349 10z m-787 -107 c-41 -59 -89 -184 -108 -283 -4
-19 -7 -76 -7 -127 l0 -92 -41 28 c-121 83 -277 130 -421 125 l-60 -1 45 39
c113 101 299 214 472 289 133 57 147 60 120 22z m1352 -12 c155 -63 303 -149
463 -269 34 -26 62 -52 63 -58 0 -6 -21 -10 -52 -10 -151 0 -298 -44 -419
-126 l-35 -25 -1 106 c-1 128 -33 250 -93 354 -21 37 -35 67 -30 67 5 0 51
-18 104 -39z m-3411 -308 c7 -16 55 -101 105 -190 51 -89 105 -186 121 -215
31 -58 44 -81 168 -301 45 -82 83 -155 83 -163 0 -8 -20 -24 -45 -36 -25 -12
-45 -26 -45 -30 0 -4 -4 -8 -9 -8 -5 0 -178 -101 -385 -225 -208 -124 -381
-225 -386 -225 -5 0 -7 15 -5 33 2 17 6 78 10 134 3 56 7 110 9 120 2 10 7 43
10 74 4 31 9 67 11 80 63 329 142 572 272 841 37 76 68 138 69 138 2 0 9 -12
17 -27z m2744 7 c86 -52 45 -190 -57 -190 -20 0 -46 7 -59 16 -25 18 -51 71
-47 95 7 40 21 62 49 80 41 24 74 24 114 -1z m2699 -82 c150 -301 263 -661
300 -958 3 -30 8 -64 10 -74 3 -17 7 -69 18 -233 2 -29 0 -53 -5 -53 -5 0 -26
10 -47 23 -45 27 0 0 -442 263 -201 120 -370 222 -377 228 -9 8 -3 26 25 76
21 36 55 97 76 135 21 39 42 75 46 80 4 6 21 35 37 65 37 68 131 237 172 310
17 30 52 94 79 142 26 48 50 88 54 88 4 0 28 -42 54 -92z m-4366 5 c0 -2 -27
-38 -60 -79 -123 -155 -229 -338 -304 -524 -19 -47 -37 -85 -41 -85 -3 0 -13
11 -20 25 -13 23 -115 205 -170 305 -13 22 -57 103 -100 180 -42 77 -81 144
-86 150 -5 5 -9 12 -9 16 0 4 109 7 242 8 133 1 243 3 244 4 4 4 304 4 304 0z
m3817 -4 l192 -1 -10 -22 c-70 -135 -373 -665 -378 -659 -4 4 -18 35 -30 68
-71 180 -187 382 -311 540 -26 33 -50 65 -53 71 -5 9 48 11 196 8 111 -1 288
-4 394 -5z m-3205 -207 c71 -27 165 -94 201 -144 l20 -27 -34 -28 c-19 -15
-54 -46 -78 -69 l-44 -40 -46 46 c-150 150 -408 105 -503 -87 -29 -59 -33 -77
-32 -144 1 -97 33 -168 105 -233 46 -41 76 -55 176 -82 8 -2 8 -14 -2 -47 -7
-24 -16 -70 -20 -102 l-8 -57 -41 5 c-164 20 -337 171 -396 346 -144 430 277
828 702 663z m2367 11 c102 -32 213 -119 276 -218 132 -206 104 -473 -67 -651
-68 -71 -164 -126 -256 -148 -34 -8 -61 -11 -60 -8 3 11 -24 155 -33 180 -6
16 -5 24 4 26 103 28 130 40 176 82 73 65 105 137 105 233 0 176 -121 305
-298 318 -94 7 -167 -20 -235 -86 l-48 -47 -69 63 c-38 35 -72 63 -76 63 -44
0 85 124 173 166 130 64 263 72 408 27z m-1478 -150 c1 -22 1 -725 0 -735 -1
-4 -18 -16 -39 -27 -45 -23 -123 -104 -140 -146 l-12 -30 -378 1 -377 0 4 45
c10 125 81 311 171 444 100 148 282 304 426 366 27 11 63 27 81 35 40 18 194
56 251 63 6 0 12 -7 13 -16z m372 -14 c306 -74 584 -312 713 -609 46 -105 95
-309 76 -311 -4 0 -175 -1 -379 -2 l-373 -2 -12 30 c-18 43 -75 103 -133 140
l-50 32 2 374 c0 206 2 375 2 375 3 5 86 -10 154 -27z m-1412 -245 c38 -19 63
-68 55 -108 -9 -42 -26 -63 -67 -80 -65 -27 -139 22 -141 93 -2 81 81 133 153
95z m2394 1 c81 -39 75 -156 -11 -191 -35 -14 -97 3 -119 33 -39 50 -22 128
33 157 35 20 56 20 97 1z m-3335 -389 c0 -2 -4 -26 -10 -55 -34 -180 -34 -501
0 -680 5 -30 8 -56 5 -59 -2 -2 -155 86 -340 196 -325 194 -335 201 -313 216
65 42 644 385 651 386 4 0 7 -2 7 -4z m4334 -80 c77 -46 228 -136 334 -200
l193 -115 -38 -24 c-116 -75 -635 -379 -639 -375 -2 3 0 25 5 49 35 157 35
508 1 690 -12 61 -12 59 -4 59 3 0 70 -38 148 -84z m-4026 -86 c54 -72 148
-149 235 -194 l66 -35 -67 -36 c-132 -72 -214 -152 -295 -288 -40 -66 -36 -72
-58 78 -18 128 -15 402 6 530 3 17 8 45 11 63 l5 34 35 -59 c20 -32 47 -74 62
-93z m3676 62 c25 -161 26 -448 2 -567 -2 -11 -7 -39 -11 -63 l-7 -43 -35 58
c-81 136 -163 216 -295 288 l-67 36 66 35 c113 58 200 139 275 253 26 40 48
79 49 85 1 16 16 -38 23 -82z m-1837 -203 c49 -26 61 -105 25 -156 -43 -59
-142 -48 -174 20 -46 98 51 188 149 136z m-2670 -433 l413 -246 -29 -53 c-157
-279 -283 -503 -366 -655 -55 -100 -103 -182 -107 -182 -18 0 -154 298 -214
470 -62 179 -120 419 -139 575 -4 32 -9 68 -11 79 -2 11 -6 65 -10 120 -3 56
-7 118 -9 139 l-3 37 32 -19 c17 -10 217 -130 443 -265z m5698 232 c-2 -24 -7
-83 -10 -133 -3 -49 -10 -117 -15 -150 -5 -33 -12 -79 -15 -102 -7 -60 -43
-224 -71 -328 -51 -183 -125 -374 -214 -553 l-57 -114 -90 164 c-86 154 -334
597 -382 682 -12 21 -21 44 -19 52 3 13 843 521 865 523 8 1 10 -13 8 -41z
m-3395 3 c9 -1 21 -16 28 -35 13 -36 98 -121 147 -147 l30 -15 -2 -370 c0
-203 -1 -372 -2 -376 -1 -8 -27 -5 -116 14 -322 65 -616 307 -751 617 -52 120
-96 305 -74 313 8 2 694 2 740 -1z m1361 0 c21 -3 -36 -227 -84 -332 -130
-286 -406 -517 -704 -588 -113 -27 -153 -32 -154 -18 -3 43 -4 725 0 735 2 7
20 21 40 32 49 25 86 62 126 124 l32 51 369 -2 c203 0 372 -2 375 -2z m-2306
-117 c4 -31 13 -77 20 -101 10 -33 10 -45 2 -47 -130 -35 -194 -77 -241 -159
-100 -173 -13 -396 179 -463 103 -36 236 -4 316 76 l46 46 44 -40 c24 -23 59
-53 77 -68 40 -33 36 -45 -37 -109 -57 -51 -139 -95 -214 -115 -50 -14 -179
-19 -222 -10 -98 21 -184 61 -249 115 -238 201 -260 553 -48 775 83 86 210
153 293 155 25 1 27 -3 34 -55z m2668 19 c61 -28 150 -92 194 -142 67 -76 122
-233 123 -347 0 -162 -95 -338 -237 -435 -194 -134 -465 -117 -643 39 -74 64
-78 77 -38 109 18 15 53 47 77 70 l44 43 34 -39 c18 -22 59 -52 91 -68 50 -24
68 -28 142 -27 102 1 156 22 220 86 125 124 127 328 5 450 -41 41 -101 73
-163 89 -35 8 -42 13 -36 27 4 9 14 54 23 100 l16 83 43 -5 c23 -3 70 -18 105
-33z m-2561 -395 c15 -6 34 -25 44 -46 15 -32 15 -41 3 -76 -35 -100 -169 -96
-197 6 -13 48 10 96 57 120 33 16 39 16 93 -4z m2426 -23 c22 -26 26 -40 23
-80 -8 -102 -149 -126 -197 -34 -13 27 -14 38 -4 75 24 84 120 105 178 39z
m-3259 -150 c55 -140 168 -349 243 -450 4 -5 35 -45 68 -87 33 -43 60 -79 60
-81 0 -4 -783 3 -787 7 -1 1 84 156 189 345 105 188 194 339 197 334 4 -4 18
-35 30 -68z m4059 -34 c34 -59 74 -132 91 -162 16 -30 74 -133 129 -229 54
-96 97 -178 95 -182 -2 -3 -92 -7 -201 -8 -108 -1 -284 -3 -389 -4 -106 -2
-193 -1 -193 1 0 2 24 34 54 71 142 177 248 365 336 597 5 14 11 25 14 25 2 0
31 -49 64 -109z m-2458 -407 c47 -15 86 -28 88 -30 2 -1 -3 -23 -12 -47 -19
-55 -15 -156 8 -211 35 -83 125 -164 209 -187 147 -39 318 41 379 178 26 60
32 163 12 221 -9 24 -14 45 -12 46 2 1 46 16 98 33 86 28 96 29 105 14 19 -31
27 -77 30 -176 4 -120 -16 -195 -77 -291 -182 -288 -574 -333 -819 -94 -135
132 -187 314 -144 499 18 74 23 84 38 77 7 -3 50 -17 97 -32z m-363 -171 c1
-130 33 -251 93 -355 21 -38 34 -68 29 -68 -19 0 -207 83 -287 126 -106 58
-243 150 -306 206 l-48 43 63 1 c96 1 165 12 240 38 69 24 193 89 204 106 3 6
7 10 9 10 2 0 3 -48 3 -107z m813 78 c39 -38 46 -71 25 -116 -19 -38 -59 -65
-97 -65 -72 0 -125 87 -92 152 33 64 115 79 164 29z m821 -60 c90 -41 181 -63
276 -64 46 -1 83 -5 83 -9 0 -23 -226 -181 -365 -254 -82 -44 -246 -114 -265
-114 -5 0 1 17 14 38 78 124 121 298 108 440 l-4 53 44 -30 c24 -17 73 -43
109 -60z m-2961 -236 c250 -3 455 -7 457 -8 3 -4 15 -850 13 -990 l0 -37 -102
68 c-356 239 -658 544 -888 896 -53 81 -53 82 24 79 23 -1 246 -4 496 -8z
m4703 6 c4 -1 -28 -54 -72 -118 -230 -339 -505 -614 -843 -844 l-118 -80 -1
33 c-2 85 11 991 14 995 2 1 212 5 467 8 256 4 466 7 467 8 1 2 62 0 86 -2z
m-3955 -65 c150 -120 348 -235 517 -303 50 -19 94 -39 98 -43 8 -7 -29 -30
-157 -100 -47 -25 -291 -162 -449 -251 -38 -22 -70 -39 -72 -39 -2 0 -4 100
-5 223 -1 122 -3 300 -5 395 -1 94 0 172 2 172 2 0 34 -24 71 -54z m2715 -328
c-2 -211 -6 -389 -9 -397 -3 -9 -8 -10 -17 -3 -12 9 -49 30 -167 95 -30 17
-120 67 -200 112 -80 45 -180 101 -222 124 -43 23 -78 45 -78 49 0 4 18 13 40
20 162 50 464 224 610 351 19 16 38 30 41 31 3 0 4 -172 2 -382z m-1709 -112
c169 -28 498 -26 659 5 28 5 52 7 55 5 2 -3 -82 -149 -187 -325 -105 -176
-194 -327 -197 -336 -7 -16 -24 -21 -24 -6 0 6 -26 52 -59 104 -32 52 -60 98
-62 103 -2 5 -64 108 -136 230 -73 122 -133 224 -133 228 0 4 12 5 28 2 15 -3
40 -8 56 -10z m-207 -208 c37 -62 70 -117 73 -123 3 -5 89 -151 193 -323 103
-172 187 -317 187 -322 0 -5 -17 -7 -37 -5 -21 2 -81 6 -134 10 -53 3 -105 7
-116 9 -11 3 -44 7 -74 11 -133 15 -384 74 -539 125 -215 72 -520 214 -501
233 7 7 860 489 878 496 1 1 32 -50 70 -111z m1615 -168 c213 -118 387 -218
388 -222 0 -9 -189 -103 -295 -148 -73 -30 -259 -97 -295 -105 -8 -2 -46 -13
-85 -24 -113 -31 -273 -64 -371 -76 -33 -4 -67 -9 -78 -11 -21 -4 -180 -16
-248 -18 l-47 -2 18 30 c78 129 101 169 101 172 0 2 15 28 34 57 19 28 105
171 191 317 87 146 164 275 171 287 l14 23 58 -33 c32 -17 232 -129 444 -247z"/>
<path d="M2475 6019 c-44 -26 -84 -50 -90 -52 -5 -2 7 -32 28 -66 20 -34 37
-65 37 -67 0 -3 7 -16 16 -30 l17 -24 66 37 c36 20 78 44 92 52 l26 16 -47 84
c-27 46 -52 87 -57 91 -4 4 -44 -14 -88 -41z"/>
<path d="M3837 6063 c-2 -4 -4 -53 -3 -108 l1 -100 105 0 105 0 0 105 0 105
-102 3 c-56 1 -103 -1 -106 -5z"/>
<path d="M1259 5301 c-9 -15 -32 -57 -52 -92 l-37 -65 92 -52 c50 -29 92 -51
93 -50 1 2 25 42 53 90 l51 87 -27 19 c-15 10 -56 35 -92 55 l-65 36 -16 -28z"/>
<path d="M5091 5339 c-29 -50 -51 -92 -49 -93 13 -11 181 -106 182 -104 2 2
26 43 54 92 l51 90 -90 53 c-50 29 -92 53 -93 53 -1 0 -26 -41 -55 -91z"/>
<path d="M535 4040 c-2 -4 -4 -52 -4 -108 l0 -102 107 3 107 2 0 103 c1 56 -1
103 -4 103 -22 5 -203 3 -206 -1z"/>
<path d="M5873 4172 c-45 -26 -84 -50 -88 -53 -7 -8 93 -179 105 -179 11 0
173 94 174 101 1 8 -98 179 -104 179 -3 0 -42 -22 -87 -48z"/>
<path d="M2660 3725 l0 -105 108 0 107 0 0 105 0 105 -107 0 -108 0 0 -105z"/>
<path d="M3737 3828 c-7 -4 -11 -45 -12 -107 l0 -101 108 0 107 0 0 105 0 105
-27 1 c-16 0 -59 1 -96 2 -38 1 -74 -1 -80 -5z"/>
<path d="M645 2628 c-39 -22 -80 -47 -92 -54 l-23 -14 52 -88 c28 -48 52 -88
53 -90 2 -2 44 20 94 49 l91 51 -37 67 c-20 36 -44 78 -53 92 l-15 27 -70 -40z"/>
<path d="M5857 2761 c-3 -5 -1 -172 2 -196 0 -7 41 -10 104 -10 l102 0 3 107
3 106 -106 0 c-58 0 -107 -3 -108 -7z"/>
<path d="M2660 2875 l0 -105 108 0 107 0 -2 97 c0 54 -1 101 -2 106 -1 4 -48
7 -106 7 l-105 0 0 -105z"/>
<path d="M3725 2878 l0 -103 70 -5 c39 -3 87 -3 108 -1 l37 3 0 104 0 104
-107 0 -108 0 0 -102z"/>
<path d="M1323 1367 l-52 -91 91 -53 c69 -40 94 -51 99 -41 5 7 28 47 53 88
l45 75 -25 20 c-13 12 -55 37 -92 57 l-67 37 -52 -92z"/>
<path d="M5193 1470 l-52 -89 27 -19 c15 -10 56 -35 92 -54 l66 -36 15 27 c9
15 32 57 52 92 l36 65 -89 52 c-49 29 -91 52 -92 52 -2 0 -26 -41 -55 -90z"/>
<path d="M2562 741 c-6 -5 -9 -160 -3 -200 0 -6 47 -10 105 -9 l104 0 -1 106
-2 107 -98 0 c-53 1 -101 -1 -105 -4z"/>
<path d="M4025 770 c-43 -26 -81 -52 -83 -58 -2 -8 37 -84 84 -159 l14 -22 87
50 c49 28 90 52 92 54 5 5 -100 185 -108 184 -3 0 -42 -22 -86 -49z"/>
</g>
</svg>
