<?xml version="1.0" encoding="UTF-8"?>
<svg width="14px" height="14px" viewBox="0 0 14 14" version="1.1" xmlns="http://www.w3.org/2000/svg" xmlns:xlink="http://www.w3.org/1999/xlink">
    <!-- Generator: Sketch 59.1 (86144) - https://sketch.com -->
    <title>instagram</title>
    <desc>Created with Sketch.</desc>
    <g id="Page-1" stroke="none" stroke-width="1" fill="none" fill-rule="evenodd">
        <g id="Desktop-HD-Copy-4" transform="translate(-653.000000, -5501.000000)" fill="#00355F" fill-rule="nonzero">
            <g id="Group" transform="translate(653.000000, 5501.000000)">
                <g id="instagram">
                    <path d="M9.625,0 L4.375,0 C1.95875422,0 0,1.95875422 0,4.375 L0,9.625 C0,12.0412458 1.95875422,14 4.375,14 L9.625,14 C12.0412458,14 14,12.0412458 14,9.625 L14,4.375 C14,1.95875422 12.0412458,0 9.625,0 Z M12.6875,9.625 C12.6875,11.316372 11.316372,12.6875 9.625,12.6875 L4.375,12.6875 C2.68362795,12.6875 1.3125,11.316372 1.3125,9.625 L1.3125,4.375 C1.3125,2.68362795 2.68362795,1.3125 4.375,1.3125 L9.625,1.3125 C11.316372,1.3125 12.6875,2.68362795 12.6875,4.375 L12.6875,9.625 Z" id="Shape"></path>
                    <path d="M7,3.5 C5.06700338,3.5 3.5,5.06700338 3.5,7 C3.5,8.93299662 5.06700338,10.5 7,10.5 C8.93299662,10.5 10.5,8.93299662 10.5,7 C10.5,6.07174229 10.1312511,5.18150359 9.47487373,4.52512627 C8.81849641,3.86874894 7.92825771,3.5 7,3.5 Z M7,9.1875 C5.79187711,9.1875 4.8125,8.20812289 4.8125,7 C4.8125,5.79187711 5.79187711,4.8125 7,4.8125 C8.20812289,4.8125 9.1875,5.79187711 9.1875,7 C9.1875,7.58016107 8.95703191,8.13656026 8.54679608,8.54679608 C8.13656026,8.95703191 7.58016107,9.1875 7,9.1875 Z" id="Shape"></path>
                    <circle id="Oval" cx="10.7625" cy="3.2375" r="1"></circle>
                </g>
            </g>
        </g>
    </g>
</svg>