<?xml version="1.0" encoding="utf-8"?>
<svg width="45px" height="45px" viewBox="0 0 45 45" version="1.1" xmlns:xlink="http://www.w3.org/1999/xlink" xmlns="http://www.w3.org/2000/svg">
  <desc>Created with Lunacy</desc>
  <g id="Group-3">
    <g id="pattern-(1)">
      <path d="M0 22.5C0 10.0929 10.094 0 22.5 0C34.906 0 45 10.0929 45 22.5C45 34.9071 34.906 45 22.5 45C10.094 45 0 34.9071 0 22.5ZM12.3437 4.07168L18.4783 7.49764L22.0818 1.4626C18.5573 1.53135 15.2426 2.46767 12.3437 4.07168ZM26.5224 7.49764L22.9182 1.4626C26.4434 1.53135 29.7588 2.46767 32.6577 4.07238L26.5224 7.49764ZM22.5 7.98387C22.6751 7.98387 22.8484 7.99273 23.0188 8.0101C23.7904 8.03774 24.5491 8.11464 25.2856 8.25817L22.5 3.59288L19.7144 8.25817C20.4509 8.11464 21.2096 8.03774 21.9812 8.0101C22.1516 7.99273 22.3249 7.98387 22.5 7.98387ZM17.4644 3.61663L16.2073 4.34243L16.9331 5.59948L18.1902 4.87368L17.4644 3.61663ZM26.129 5.08065L26.129 3.62903L27.5806 3.62903L27.5806 5.08065L26.129 5.08065ZM11.5201 11.5193L11.615 4.49128C8.70613 6.25583 6.25654 8.70543 4.49199 11.6136L11.5201 11.5193ZM33.4807 11.5201L40.5087 11.6143C38.7435 8.70613 36.2946 6.25654 33.385 4.49128L33.4807 11.5201ZM12.971 11.5768L13.0443 6.12647L17.7982 8.78091C16.0039 9.39792 14.3708 10.3537 12.971 11.5768ZM27.2018 8.78091L31.9557 6.12647L32.0298 11.5775C30.6299 10.3537 28.9961 9.39792 27.2018 8.78091ZM34.3525 9.22923L35.6095 9.95503L36.3353 8.69798L35.0783 7.97218L34.3525 9.22923ZM9.22852 10.6475L7.97147 9.92172L8.69727 8.66467L9.95432 9.39048L9.22852 10.6475ZM26.129 13.0645C26.129 13.5486 26.028 14.0203 25.8444 14.4601C25.3976 14.2737 24.9294 14.1284 24.4481 14.0182C24.5902 13.7287 24.6774 13.4079 24.6774 13.0645C24.6774 11.8642 23.7003 10.8871 22.5 10.8871C21.2997 10.8871 20.3226 11.8642 20.3226 13.0645C20.3226 13.4079 20.4098 13.7287 20.5519 14.0175C20.0706 14.1277 19.6032 14.273 19.1556 14.4594C18.972 14.0203 18.871 13.5486 18.871 13.0645C18.871 11.0636 20.4991 9.43548 22.5 9.43548C24.5009 9.43548 26.129 11.0636 26.129 13.0645ZM17.4707 13.7896C17.4367 13.5507 17.4194 13.3083 17.4194 13.0645C17.4194 11.9641 17.7752 10.9473 18.3716 10.1149C16.6872 10.678 15.1594 11.5768 13.8569 12.73C14.8709 12.6343 15.922 12.8359 16.8693 13.3824C17.0806 13.5043 17.2815 13.6401 17.4707 13.7896ZM31.1431 12.7293C29.8406 11.5768 28.3128 10.678 26.6284 10.1149C27.2248 10.9473 27.5806 11.9641 27.5806 13.0645C27.5806 13.3083 27.5633 13.5507 27.5285 13.7896C27.7185 13.6401 27.9194 13.5036 28.1307 13.3817C29.078 12.8352 30.1291 12.6332 31.1431 12.7293ZM21.7742 13.0645C21.7742 12.664 22.1002 12.3387 22.5 12.3387C22.8998 12.3387 23.2258 12.664 23.2258 13.0645C23.2258 13.465 22.8998 13.7903 22.5 13.7903C22.1002 13.7903 21.7742 13.465 21.7742 13.0645ZM1.4626 22.0818L7.49764 18.4783L4.07238 12.3423C2.46767 15.2412 1.53135 18.5566 1.4626 22.0818ZM37.5024 18.4783L40.9276 12.343C42.5316 15.2419 43.4679 18.5566 43.5374 22.0818L37.5024 18.4783ZM10.2215 14.7926C10.1177 14.9357 10.0192 15.0853 9.92916 15.2419C9.89053 15.3079 9.86076 15.3763 9.82603 15.4436C9.40855 16.1899 9.06301 16.9788 8.78162 17.7982L6.12718 13.0443L11.5782 12.9702C11.0788 13.5398 10.6266 14.149 10.2215 14.7926ZM35.0715 15.2419C35.1095 15.3079 35.1399 15.377 35.1747 15.4436C35.5922 16.1899 35.9377 16.9788 36.2205 17.7989L38.8749 13.045L33.424 12.971C33.9219 13.5405 34.3741 14.1497 34.7792 14.7926C34.883 14.9357 34.9808 15.0853 35.0715 15.2419ZM32.4855 20.9251C32.0638 21.1682 31.6045 21.3191 31.1292 21.3794C31.0651 20.8857 30.9673 20.4037 30.8244 19.9402C31.1438 19.9182 31.4638 19.8392 31.7597 19.6687L31.7604 19.6687C32.7999 19.0677 33.1571 17.7337 32.5574 16.6935C31.9578 15.6541 30.6239 15.2965 29.5823 15.8958C29.2835 16.0695 29.0482 16.3073 28.8682 16.5773C28.535 16.219 28.1728 15.8901 27.7837 15.5917C28.0743 15.2093 28.4347 14.8826 28.8565 14.6388C30.5331 13.6712 32.6592 14.2071 33.7022 15.8118C33.755 15.9004 33.8124 15.9865 33.8631 16.0773C34.7792 17.7947 34.1827 19.9444 32.4855 20.9251ZM16.1428 14.6395C14.4669 13.6727 12.3401 14.2085 11.2971 15.8132C11.2443 15.9018 11.1876 15.9879 11.1359 16.0787C10.2201 17.7947 10.8166 19.9451 12.5138 20.9258C12.9337 21.1689 13.3955 21.3199 13.8701 21.3801C13.9342 20.8871 14.032 20.4044 14.1748 19.9409C13.8548 19.9189 13.5355 19.8399 13.2396 19.6694C12.1994 19.0684 11.8415 17.7344 12.4418 16.6943C13.0422 15.6548 14.3769 15.2979 15.4163 15.8965L15.417 15.8965C15.7158 16.0702 15.9518 16.3083 16.1311 16.578C16.4643 16.2197 16.8264 15.8908 17.2156 15.5924C16.925 15.2093 16.5642 14.8826 16.1428 14.6395ZM24.5431 21.7742L29.7212 21.7742C29.3799 18.3507 26.6493 15.6201 23.2251 15.2781L23.2251 20.4562C23.84 20.6752 24.3241 21.1593 24.5431 21.7742ZM21.7742 15.2788L21.7742 20.4569C21.1593 20.6759 20.6752 21.16 20.4562 21.7749L15.2781 21.7749C15.6201 18.3507 18.3507 15.6201 21.7742 15.2788ZM40.6576 16.2073L41.3834 17.4644L40.1263 18.1902L39.4005 16.9331L40.6576 16.2073ZM13.7003 17.4194C13.5001 17.7663 13.6199 18.2111 13.9661 18.411C14.3113 18.6112 14.7571 18.4914 14.9574 18.1452C15.1576 17.7989 15.0389 17.3534 14.6919 17.1536C14.5778 17.0876 14.453 17.0565 14.3304 17.0565C14.0784 17.0565 13.8346 17.1872 13.7003 17.4194ZM30.3081 17.1536C30.4222 17.0876 30.547 17.0565 30.6703 17.0565C30.9216 17.0565 31.1661 17.1872 31.3004 17.4194C31.5006 17.7663 31.3808 18.2111 31.0346 18.411C30.6887 18.6119 30.2436 18.4914 30.0441 18.1452C29.8431 17.7982 29.9618 17.3534 30.3081 17.1536ZM5.08065 17.4194L3.62903 17.4194L3.62903 18.871L5.08065 18.871L5.08065 17.4194ZM18.1452 18.871L18.1452 20.3226L19.5968 20.3226L19.5968 18.871L18.1452 18.871ZM26.8548 18.871L26.8548 20.3226L25.4032 20.3226L25.4032 18.871L26.8548 18.871ZM3.59359 22.5L8.25817 25.2856C8.08168 24.3836 7.98387 23.453 7.98387 22.5C7.98387 21.547 8.08168 20.6164 8.25888 19.7144L3.59359 22.5ZM36.7418 19.7144L41.4064 22.5L36.7411 25.2856C36.9183 24.3836 37.0161 23.453 37.0161 22.5C37.0161 21.547 36.9183 20.6164 36.7418 19.7144ZM9.43548 22.5C9.43548 21.5977 9.52763 20.7167 9.7027 19.8654C10.1244 20.8053 10.8297 21.6282 11.7887 22.1821C12.0013 22.3047 12.2225 22.4079 12.4482 22.4979C12.2218 22.5879 12.002 22.6939 11.7887 22.8172C10.8297 23.3711 10.1251 24.194 9.7027 25.1339C9.52763 24.2833 9.43548 23.4023 9.43548 22.5ZM32.5532 22.4986C32.7789 22.5886 32.9987 22.6953 33.2113 22.8179C34.1703 23.3711 34.8756 24.194 35.2973 25.1346C35.4724 24.2833 35.5645 23.4023 35.5645 22.5C35.5645 21.5977 35.4724 20.7167 35.2973 19.8661C34.8749 20.806 34.1703 21.6289 33.2113 22.1828C32.9994 22.3054 32.7782 22.4086 32.5532 22.4986ZM21.7742 22.5C21.7742 22.9005 22.1002 23.2258 22.5 23.2258C22.8998 23.2258 23.2258 22.9005 23.2258 22.5C23.2258 22.0995 22.8998 21.7742 22.5 21.7742C22.1002 21.7742 21.7742 22.0995 21.7742 22.5ZM7.49764 26.5217L4.07168 32.657C2.46767 29.7581 1.53135 26.4434 1.4626 22.9182L7.49764 26.5217ZM43.5374 22.9182L37.5024 26.5217L40.9276 32.6577C42.5316 29.7581 43.4679 26.4434 43.5374 22.9182ZM23.2258 24.5431L23.2258 29.7212C26.6493 29.3799 29.3799 26.6493 29.7219 23.2251L24.5438 23.2251C24.3248 23.84 23.8407 24.3241 23.2258 24.5431ZM20.4569 23.2258L15.2788 23.2258C15.6201 26.6493 18.3507 29.3799 21.7749 29.7219L21.7749 24.5438C21.16 24.3248 20.6759 23.8407 20.4569 23.2258ZM33.7022 29.1875C32.6592 30.7922 30.5338 31.328 28.8565 30.3605C28.4347 30.1174 28.0743 29.7907 27.7837 29.4076C28.1728 29.1092 28.535 28.7803 28.8682 28.422C29.0475 28.6917 29.2835 28.9298 29.5823 29.1035L29.583 29.1035C29.925 29.3002 30.2989 29.3937 30.6674 29.3937C31.4209 29.3937 32.1545 29.0032 32.5574 28.3057C33.1578 27.2656 32.7999 25.9316 31.7597 25.3306C31.4645 25.1608 31.1452 25.0758 30.8259 25.0534C30.968 24.5909 31.0651 24.1107 31.1292 23.6199C31.6045 23.6801 32.0655 23.8311 32.4855 24.0742C34.1827 25.0549 34.7792 27.2053 33.8631 28.9213C33.8124 29.0128 33.755 29.0989 33.7022 29.1875ZM12.5145 24.0749C12.9352 23.8318 13.3962 23.6816 13.8708 23.6213C13.9349 24.1122 14.032 24.5924 14.1741 25.0541C13.8548 25.0758 13.5355 25.1615 13.241 25.332L13.2403 25.332C12.2008 25.9331 11.8436 27.267 12.4433 28.3072C12.8462 29.0046 13.5791 29.3952 14.3333 29.3952C14.7018 29.3952 15.0757 29.3016 15.4184 29.1049C15.7172 28.9313 15.9525 28.6935 16.1325 28.4234C16.4657 28.7817 16.8279 29.1106 17.217 29.409C16.9264 29.7914 16.566 30.1181 16.1442 30.362C14.4662 31.328 12.3415 30.7929 11.2986 29.1889C11.2457 29.1007 11.1883 29.0135 11.1369 28.9235C10.2208 27.2053 10.8173 25.0556 12.5145 24.0749ZM18.1452 26.129L18.1452 24.6774L19.5968 24.6774L19.5968 26.129L18.1452 26.129ZM26.8548 26.129L26.8548 24.6774L25.4032 24.6774L25.4032 26.129L26.8548 26.129ZM39.9194 27.5806L41.371 27.5806L41.371 26.129L39.9194 26.129L39.9194 27.5806ZM31.2997 27.5806C31.4999 27.2344 31.3809 26.7889 31.0339 26.589C30.6869 26.3874 30.2429 26.5079 30.0434 26.8548C29.8431 27.2011 29.9618 27.6466 30.3088 27.8464C30.655 28.0467 31.1002 27.9276 31.2997 27.5806ZM14.6919 27.8464C14.345 28.0467 13.8998 27.9269 13.7003 27.5806C13.5001 27.2337 13.6199 26.7889 13.9661 26.589C14.3131 26.3895 14.7578 26.5093 14.9566 26.8548C15.1569 27.2018 15.0382 27.6466 14.6919 27.8464ZM4.34243 28.7927L3.61663 27.5356L4.87368 26.8098L5.59948 28.0669L4.34243 28.7927ZM9.82603 29.5564C9.40855 28.8101 9.0623 28.0212 8.78091 27.2018L6.12647 31.9557L11.5775 32.0298C11.043 31.4181 10.5628 30.761 10.1358 30.0657C10.0663 29.9636 9.99153 29.8669 9.92916 29.7581C9.89124 29.6921 9.86076 29.623 9.82603 29.5564ZM34.8649 30.0657C34.9337 29.9636 35.0085 29.8669 35.0715 29.7581C35.1102 29.6921 35.1399 29.6237 35.1747 29.5564C35.5922 28.8101 35.9377 28.0212 36.2191 27.2018L38.8735 31.9557L33.4225 32.0298C33.9577 31.4181 34.4382 30.761 34.8649 30.0657ZM19.1556 30.5399C18.972 30.9797 18.871 31.4514 18.871 31.9355C18.871 33.9364 20.4991 35.5645 22.5 35.5645C24.5009 35.5645 26.129 33.9364 26.129 31.9355C26.129 31.4514 26.028 30.9797 25.8444 30.5406C25.3968 30.727 24.9294 30.8723 24.4481 30.9825C24.5902 31.2713 24.6774 31.5921 24.6774 31.9355C24.6774 33.1358 23.7003 34.1129 22.5 34.1129C21.2997 34.1129 20.3226 33.1358 20.3226 31.9355C20.3226 31.5921 20.4098 31.2713 20.5519 30.9818C20.0706 30.8716 19.6024 30.7263 19.1556 30.5399ZM18.3716 34.8851C16.6847 34.3213 15.1555 33.4211 13.8527 32.2665C14.0139 32.2817 14.1748 32.2977 14.3375 32.2977C15.1991 32.2977 16.0716 32.0783 16.8693 31.6176C17.0805 31.4957 17.2815 31.3592 17.4715 31.2097C17.4367 31.4492 17.4194 31.6917 17.4194 31.9355C17.4194 33.0359 17.7752 34.0527 18.3716 34.8851ZM23.2258 31.9355C23.2258 32.336 22.8998 32.6613 22.5 32.6613C22.1002 32.6613 21.7742 32.336 21.7742 31.9355C21.7742 31.535 22.1002 31.2097 22.5 31.2097C22.8998 31.2097 23.2258 31.535 23.2258 31.9355ZM27.5806 31.9355C27.5806 31.6917 27.5633 31.4493 27.5293 31.2104C27.7185 31.3599 27.9195 31.4957 28.1307 31.6176C28.9291 32.0783 29.8017 32.2977 30.6625 32.2977C30.8252 32.2977 30.9861 32.2817 31.1473 32.2665C29.8445 33.4211 28.3146 34.322 26.6277 34.8858C27.2248 34.0527 27.5806 33.0359 27.5806 31.9355ZM4.49128 33.3857L11.5193 33.4799L11.615 40.5087C8.70543 38.7435 6.25654 36.2939 4.49128 33.3857ZM33.4799 33.4807L33.385 40.5087C36.2939 38.7442 38.7435 36.2946 40.508 33.3864L33.4799 33.4807ZM13.0443 38.8735L17.7982 36.2191C16.0039 35.6021 14.3701 34.6463 12.9702 33.4225L13.0443 38.8735ZM31.9557 38.8735L32.029 33.4232C30.6292 34.6463 28.9961 35.6021 27.2018 36.2191L31.9557 38.8735ZM35.7715 34.3525L37.0285 35.0783L36.3027 36.3353L35.0457 35.6095L35.7715 34.3525ZM10.6468 35.7708L9.38977 35.045L8.66396 36.302L9.92101 37.0278L10.6468 35.7708ZM21.9812 36.9899C22.1516 37.0073 22.3249 37.0161 22.5 37.0161C22.6751 37.0161 22.8484 37.0073 23.0188 36.9899C23.7904 36.9623 24.5491 36.8854 25.2856 36.7418L22.5 41.4071L19.7144 36.7418C20.4509 36.8854 21.2096 36.9623 21.9812 36.9899ZM18.4776 37.5024L22.0818 43.5374C18.5566 43.4679 15.2412 42.5316 12.3423 40.9276L18.4776 37.5024ZM32.6563 40.9283L26.5217 37.5024L22.9182 43.5374C26.4427 43.4686 29.7574 42.5323 32.6563 40.9283ZM27.5356 41.3834L28.7927 40.6576L28.0669 39.4005L26.8098 40.1263L27.5356 41.3834ZM18.871 39.9194L18.871 41.371L17.4194 41.371L17.4194 39.9194L18.871 39.9194Z" id="Shape" fill="#FFFFFF" fill-rule="evenodd" stroke="none" />
    </g>
  </g>
</svg>