<?xml version="1.0" encoding="UTF-8"?>
<svg width="81px" height="81px" viewBox="0 0 81 81" version="1.1" xmlns="http://www.w3.org/2000/svg" xmlns:xlink="http://www.w3.org/1999/xlink">
    <!-- Generator: Sketch 59.1 (86144) - https://sketch.com -->
    <title>Group 3</title>
    <desc>Created with Sketch.</desc>
    <defs>
        <linearGradient x1="50%" y1="100%" x2="50%" y2="0%" id="linearGradient-1">
            <stop stop-color="#489FE4" offset="0%"></stop>
            <stop stop-color="#0E5AC5" offset="100%"></stop>
        </linearGradient>
    </defs>
    <g id="Page-1" stroke="none" stroke-width="1" fill="none" fill-rule="evenodd">
        <g id="Desktop-HD-Copy-4" transform="translate(-650.000000, -5359.000000)" fill="url(#linearGradient-1)" fill-rule="nonzero">
            <g id="Group-3" transform="translate(650.000000, 5359.000000)">
                <g id="pattern-(1)">
                    <path d="M40.5,0 C18.1691185,0 0,18.1672049 0,40.5 C0,62.8327951 18.1691185,81 40.5,81 C62.8308815,81 81,62.8327951 81,40.5 C81,18.1672049 62.8308815,0 40.5,0 Z M72.9156928,20.9057775 L60.265184,20.7360918 L60.0929466,8.08430723 C65.3302356,11.2617661 69.7382339,15.6710403 72.9156928,20.9057775 Z M16.983871,40.5 C16.983871,38.8758664 17.1497291,37.2900076 17.4648594,35.7577338 C18.2239793,37.4494864 19.4934319,38.9307271 21.2196321,39.9277895 C21.6023816,40.1485083 22.000441,40.3341419 22.4067934,40.4961724 C21.9991653,40.6582031 21.6036573,40.84894 21.2196321,41.0709347 C19.4934319,42.067997 18.2252551,43.5492377 17.4648594,45.2409904 C17.1497291,43.7099924 16.983871,42.1241336 16.983871,40.5 Z M14.8647147,45.5140184 L6.46846648,40.5 L14.8659904,35.4859816 C14.5470325,37.1094773 14.3709677,38.7846444 14.3709677,40.5 C14.3709677,42.2153556 14.5470325,43.8905227 14.8647147,45.5140184 Z M58.4739163,37.6651021 C57.7147964,38.1027122 56.8880575,38.3744645 56.0326124,38.4829102 C55.9171497,37.5942934 55.7410849,36.7267278 55.4840048,35.8923339 C56.0587671,35.8527832 56.634805,35.710528 57.1674647,35.4036905 L57.1687405,35.4036905 C59.0397477,34.3217853 59.6827669,31.9206701 58.6034133,30.0483871 C57.5240597,28.17738 55.1229445,27.5337228 53.2481099,28.6124385 C52.7103468,28.9250174 52.2867707,29.3530589 51.9627094,29.8391507 C51.3630686,29.1942178 50.7111187,28.6022319 50.010687,28.0651068 C50.533778,27.3767956 51.1825384,26.7886371 51.9416583,26.3497511 C54.9596381,24.6082409 58.786495,25.5727697 60.6638813,28.4612525 C60.7589309,28.6207314 60.8622732,28.775745 60.9534952,28.9390514 C62.6025076,32.0303916 61.5288952,35.8999889 58.4739163,37.6651021 L58.4739163,37.6651021 Z M55.8610131,47.8602727 C56.4855327,48.2200574 56.6998725,49.0219176 56.3394501,49.6451613 C55.9803034,50.2696809 55.1790811,50.4840206 54.5558372,50.1235982 C53.9313178,49.7638136 53.7176159,48.9619534 54.0780383,48.3387097 C54.437185,47.71419 55.2364935,47.4972987 55.8610131,47.8602727 L55.8610131,47.8602727 Z M26.4454385,50.1235982 C25.8209189,50.4840206 25.0196966,50.268405 24.6605499,49.6451613 C24.3001275,49.0206417 24.5157432,48.2200574 25.1389869,47.8602727 C25.7635065,47.5011262 26.5640908,47.7167417 26.9219617,48.3387097 C27.2823841,48.9632293 27.0686822,49.7638136 26.4454385,50.1235982 Z M25.1389869,33.1397273 C24.5157432,32.7799426 24.3001275,31.9793583 24.6605499,31.3548387 C24.9023201,30.9370038 25.3412062,30.7016129 25.7947644,30.7016129 C26.0154833,30.7016129 26.2400297,30.7577495 26.4454385,30.8764018 C27.0699581,31.2361864 27.2836598,32.0380466 26.9232374,32.6612903 C26.562815,33.284534 25.760317,33.5001497 25.1389869,33.1397273 Z M54.5545615,30.8764018 C54.7599703,30.7577495 54.9845167,30.7016129 55.2065115,30.7016129 C55.6587938,30.7016129 56.0989557,30.9370038 56.3407258,31.3548387 C56.7011482,31.9793583 56.4855327,32.7799426 55.8622889,33.1397273 C55.239683,33.5014254 54.4384607,33.284534 54.0793142,32.6612903 C53.7176159,32.0367707 53.9313178,31.2361864 54.5545615,30.8764018 Z M53.4981729,39.1935484 L44.1775847,39.1935484 C43.7833528,38.0867644 42.9119597,37.2153714 41.8051759,36.8211394 L41.8051759,27.5005514 C47.9687185,28.1161401 52.8838599,33.0312815 53.4981729,39.1935484 L53.4981729,39.1935484 Z M41.8064516,57.483871 C41.8064516,58.2047158 41.2195691,58.7903226 40.5,58.7903226 C39.7804309,58.7903226 39.1935484,58.2047158 39.1935484,57.483871 C39.1935484,56.7630262 39.7804309,56.1774194 40.5,56.1774194 C41.2195691,56.1774194 41.8064516,56.7630262 41.8064516,57.483871 Z M40.5,41.8064516 C39.7804309,41.8064516 39.1935484,41.2208448 39.1935484,40.5 C39.1935484,39.7791552 39.7804309,39.1935484 40.5,39.1935484 C41.2195691,39.1935484 41.8064516,39.7791552 41.8064516,40.5 C41.8064516,41.2208448 41.2195691,41.8064516 40.5,41.8064516 Z M39.1935484,23.516129 C39.1935484,22.7952842 39.7804309,22.2096774 40.5,22.2096774 C41.2195691,22.2096774 41.8064516,22.7952842 41.8064516,23.516129 C41.8064516,24.2369738 41.2195691,24.8225806 40.5,24.8225806 C39.7804309,24.8225806 39.1935484,24.2369738 39.1935484,23.516129 Z M47.9310814,18.2067556 C50.9630953,19.2204038 53.7131505,20.8381583 56.0574912,22.9126607 C54.232414,22.7397855 52.3403556,23.1033975 50.6352067,24.0870637 C50.2550088,24.3065068 49.8933105,24.5521043 49.5513876,24.8213049 C49.6139035,24.3913495 49.6451613,23.9550151 49.6451613,23.516129 C49.6451613,21.5354004 49.0046938,19.7052198 47.9310814,18.2067556 Z M47.0322581,23.516129 C47.0322581,24.3875221 46.8504521,25.236588 46.5200116,26.0282415 C45.7155998,25.6926978 44.872913,25.4311523 44.0066233,25.2327606 C44.2624275,24.7115832 44.4193548,24.1342694 44.4193548,23.516129 C44.4193548,21.3555081 42.6606209,19.5967742 40.5,19.5967742 C38.3393791,19.5967742 36.5806452,21.3555081 36.5806452,23.516129 C36.5806452,24.1342694 36.7375725,24.7115832 36.9933767,25.2314846 C36.127087,25.4298765 35.285676,25.6914219 34.4799884,26.0269657 C34.1495479,25.236588 33.9677419,24.3875221 33.9677419,23.516129 C33.9677419,19.9144562 36.8983272,16.983871 40.5,16.983871 C44.1016728,16.983871 47.0322581,19.9144562 47.0322581,23.516129 Z M31.3548387,23.516129 C31.3548387,23.9550151 31.3860965,24.3913495 31.4473365,24.8213049 C31.1066895,24.5521043 30.7449912,24.3077825 30.3647933,24.0883395 C28.6596444,23.1046734 26.767586,22.7416991 24.9425088,22.9139365 C27.2868495,20.8381583 30.0369047,19.2204038 33.0689186,18.2067556 C31.9953062,19.7052198 31.3548387,21.5354004 31.3548387,23.516129 Z M39.1935484,27.5018271 L39.1935484,36.8224153 C38.0867644,37.2166472 37.2153714,38.0880403 36.8211394,39.1948241 L27.5005514,39.1948241 C28.1161401,33.0312815 33.0312815,28.1161401 39.1935484,27.5018271 Z M27.5018271,41.8064516 L36.8224153,41.8064516 C37.2166472,42.9132356 38.0880403,43.7846286 39.1948241,44.1788606 L39.1948241,53.4994486 C33.0312815,52.8838599 28.1161401,47.9687185 27.5018271,41.8064516 L27.5018271,41.8064516 Z M33.0689186,62.7932444 C30.0324392,61.7783203 27.2798324,60.1580141 24.9348538,58.0796844 C25.2251056,58.1071147 25.5147193,58.135821 25.8075227,58.135821 C27.3582961,58.135821 28.9288448,57.7409511 30.3647933,56.9116605 C30.7449912,56.6922175 31.1066895,56.4466199 31.4486124,56.1774194 C31.3860965,56.6086505 31.3548387,57.0449849 31.3548387,57.483871 C31.3548387,59.4645996 31.9953062,61.2947802 33.0689186,62.7932444 L33.0689186,62.7932444 Z M33.9677419,57.483871 C33.9677419,56.6124779 34.1495479,55.763412 34.4799884,54.9717585 C35.2844002,55.3073022 36.127087,55.5688477 36.9933767,55.7672394 C36.7375725,56.2884168 36.5806452,56.8657306 36.5806452,57.483871 C36.5806452,59.6444919 38.3393791,61.4032258 40.5,61.4032258 C42.6606209,61.4032258 44.4193548,59.6444919 44.4193548,57.483871 C44.4193548,56.8657306 44.2624275,56.2884168 44.0066233,55.7685154 C44.872913,55.5701235 45.714324,55.3085781 46.5200116,54.9730343 C46.8504521,55.763412 47.0322581,56.6124779 47.0322581,57.483871 C47.0322581,61.0855438 44.1016728,64.016129 40.5,64.016129 C36.8983272,64.016129 33.9677419,61.0855438 33.9677419,57.483871 L33.9677419,57.483871 Z M49.6451613,57.483871 C49.6451613,57.0449849 49.6139035,56.6086505 49.5526635,56.1786951 C49.8933105,56.4478957 50.2550088,56.6922175 50.6352067,56.9116605 C52.072431,57.7409511 53.6429798,58.135821 55.1924773,58.135821 C55.4852807,58.135821 55.7748944,58.1071147 56.0651462,58.0796844 C53.7201676,60.1580141 50.966285,61.7795962 47.9298057,62.7945202 C49.0046938,61.2947802 49.6451613,59.4645996 49.6451613,57.483871 L49.6451613,57.483871 Z M41.8064516,53.4981729 L41.8064516,44.1775847 C42.9132356,43.7833528 43.7846286,42.9119597 44.1788606,41.8051759 L53.4994486,41.8051759 C52.8838599,47.9687185 47.9687185,52.8838599 41.8064516,53.4981729 Z M48.9632293,15.8056404 L57.5202321,11.0276509 L57.6535565,20.8394342 C55.1337891,18.6367109 52.192997,16.916252 48.9632293,15.8056404 Z M41.4339088,14.4181734 C41.1270713,14.3869156 40.8151305,14.3709677 40.5,14.3709677 C40.1848695,14.3709677 39.8729287,14.3869156 39.5660912,14.4181734 C38.1773485,14.4679309 36.8115706,14.6063586 35.4859816,14.8647147 L40.5,6.46719057 L45.5140184,14.8647147 C44.1884294,14.6063586 42.8226515,14.4679309 41.4339088,14.4181734 L41.4339088,14.4181734 Z M23.3477193,20.8381583 L23.4797679,11.0276509 L32.0367707,15.8056404 C28.807003,16.916252 25.8674869,18.6367109 23.3477193,20.8381583 Z M20.3348428,28.4638042 C22.2122291,25.5753213 26.0403619,24.6107926 29.057066,26.351027 C29.8155479,26.7886371 30.4649461,27.3767956 30.9880371,28.0663826 C30.2876056,28.6035078 29.6356555,29.1954937 29.0360146,29.8404265 C28.7132293,29.3549726 28.2883773,28.9262931 27.7506144,28.6137144 L27.7493385,28.6137144 C25.8783314,27.5362747 23.4759403,28.1786558 22.395311,30.0496628 C21.3146815,31.9219458 21.9589765,34.323061 23.8312595,35.4049663 C24.3639191,35.7118039 24.9386814,35.854059 25.5147193,35.8936099 C25.2576392,36.7280038 25.0815746,37.596845 24.9661117,38.484186 C24.1119425,38.3757404 23.2807381,38.1039882 22.5248079,37.666378 C19.4698289,35.9012648 18.3962167,32.0303916 20.0445912,28.9416031 C20.1377268,28.7782966 20.2397933,28.6232832 20.3348428,28.4638042 Z M22.5260837,43.3348979 C23.2832898,42.8972878 24.1132182,42.6268114 24.9673876,42.5183657 C25.0828503,43.4018791 25.2576392,44.266255 25.5134435,45.0974594 C24.9386814,45.1363722 24.3639191,45.2907479 23.833811,45.5975854 L23.8325353,45.5975854 C21.9615282,46.6794907 21.3185091,49.0806058 22.3978626,50.9528887 C23.1231729,52.208307 24.4423828,52.9112903 25.7998677,52.9112903 C26.4633002,52.9112903 27.1363014,52.7428805 27.7531659,52.3888372 C28.290929,52.0762585 28.7145051,51.648217 29.0385663,51.162125 C29.6382072,51.807058 30.2901572,52.3990439 30.9905887,52.9361691 C30.4674978,53.6244803 29.8187374,54.2126386 29.0596175,54.6515247 C26.0390862,56.3904833 22.2147807,55.4272303 20.3373944,52.5400232 C20.242345,52.3811822 20.1390026,52.224255 20.0465048,52.0622243 C18.3974924,48.9696084 19.4711048,45.1000111 22.5260837,43.3348979 L22.5260837,43.3348979 Z M32.0367707,65.1943596 L23.4797679,69.9723491 L23.3464435,60.1605658 C25.8662109,62.3632891 28.807003,64.083748 32.0367707,65.1943596 Z M39.5660912,66.5818266 C39.8729287,66.6130844 40.1848695,66.6290323 40.5,66.6290323 C40.8151305,66.6290323 41.1270713,66.6130844 41.4339088,66.5818266 C42.8226515,66.5320691 44.1884294,66.3936414 45.5140184,66.1352853 L40.5,74.5328094 L35.4859816,66.1352853 C36.8115706,66.3936414 38.1773485,66.5320691 39.5660912,66.5818266 L39.5660912,66.5818266 Z M57.6522807,60.1618417 L57.5202321,69.9723491 L48.9632293,65.1943596 C52.192997,64.083748 55.1325131,62.3632891 57.6522807,60.1618417 Z M60.6638813,52.5374717 C58.786495,55.4259546 54.9609138,56.3904833 51.9416583,54.648973 C51.1825384,54.2113629 50.533778,53.6232044 50.010687,52.9336174 C50.7111187,52.3964922 51.3630686,51.8045063 51.9627094,51.1595735 C52.2854949,51.6450274 52.7103468,52.0737069 53.2481099,52.3862856 L53.2493856,52.3862856 C53.8649745,52.7403289 54.5379758,52.9087387 55.2014082,52.9087387 C56.5576172,52.9087387 57.8781029,52.2057555 58.6034133,50.9503372 C59.6840426,49.0780542 59.0397477,46.676939 57.1674647,45.5950337 C56.6360809,45.289472 56.0613186,45.1363722 55.4865565,45.0961835 C55.7423608,44.2637034 55.9171497,43.3993274 56.0326124,42.515814 C56.8880575,42.6242596 57.7179861,42.8960118 58.4739163,43.333622 C61.5288952,45.0987352 62.6025076,48.9696084 60.9534952,52.0583969 C60.8622732,52.2229791 60.7589309,52.3779927 60.6638813,52.5374717 L60.6638813,52.5374717 Z M59.7803679,41.0722105 C59.3976184,40.8514917 59.0021106,40.6594789 58.5957583,40.4974483 C59.0008347,40.3354178 59.3988942,40.1497843 59.7803679,39.9290653 C61.5065681,38.932003 62.7747449,37.4507623 63.5351406,35.7590096 C63.8502709,37.2900076 64.016129,38.8758664 64.016129,40.5 C64.016129,42.1241336 63.8502709,43.7099924 63.5351406,45.2422662 C62.7760207,43.5492377 61.5065681,42.067997 59.7803679,41.0722105 Z M66.1352853,35.4859816 L74.5315335,40.5 L66.1340096,45.5140184 C66.4529675,43.8905227 66.6290323,42.2153556 66.6290323,40.5 C66.6290323,38.7846444 66.4529675,37.1094773 66.1352853,35.4859816 Z M63.3144216,27.7984579 C63.2519058,27.6785298 63.1970451,27.5541361 63.1287881,27.4354839 C62.9654816,27.1535252 62.7894169,26.8843246 62.6025076,26.6266066 C61.8733697,25.4694274 61.0593891,24.37285 60.1631174,23.3477193 L69.9749007,23.4810436 L65.1969113,32.0380466 C64.6878544,30.5619093 64.0658865,29.1419087 63.3144216,27.7984579 L63.3144216,27.7984579 Z M47.7403447,13.4957472 L41.2527407,2.63267866 C47.5980894,2.75643425 53.5657919,4.44180794 58.7839435,7.3302908 L47.7403447,13.4957472 Z M33.2609312,13.4957472 L22.2186083,7.32901489 C27.4367596,4.44180794 33.4031865,2.75643425 39.7472593,2.63267866 L33.2609312,13.4957472 Z M18.3987682,26.6266066 C18.2118589,26.8843246 18.0345184,27.1535252 17.8724877,27.4354839 C17.8029549,27.5541361 17.74937,27.677254 17.6868543,27.7984579 C16.9353894,29.1419087 16.3134214,30.5619093 15.8069163,32.0367707 L11.0289267,23.4797679 L20.8407101,23.3464435 C19.9418866,24.3715741 19.127906,25.4681515 18.3987682,26.6266066 Z M13.4957472,33.2609312 L2.63267866,39.7472593 C2.75643425,33.4019106 4.44180794,27.4342081 7.3302908,22.2160565 L13.4957472,33.2609312 Z M13.4957472,47.7390688 L7.32901489,58.7826676 C4.44180794,53.5645161 2.75643425,47.5980894 2.63267866,41.2527407 L13.4957472,47.7390688 Z M15.8056404,48.9632293 C16.3121456,50.4380907 16.9353894,51.8580913 17.6868543,53.2015421 C17.74937,53.3214702 17.8042308,53.4458639 17.8724877,53.5645161 C17.9847609,53.7603563 18.1193611,53.9345073 18.2443926,54.1182271 C19.0130812,55.369818 19.8774572,56.5525139 20.8394342,57.6535565 L11.0276509,57.5202321 L15.8056404,48.9632293 Z M33.2596553,67.5042528 L39.7472593,78.3673213 C33.4019106,78.2422898 27.4342081,76.5569163 22.2160565,73.6697092 L33.2596553,67.5042528 Z M47.7390688,67.5042528 L58.7813917,73.6709851 C53.5632404,76.5581921 47.5968135,78.2435658 41.2527407,78.3673213 L47.7390688,67.5042528 Z M62.7568831,54.1182271 C62.8806389,53.9345073 63.0152391,53.7603563 63.1287881,53.5645161 C63.198321,53.4458639 63.2519058,53.322746 63.3144216,53.2015421 C64.0658865,51.8580913 64.6878544,50.4380907 65.1943596,48.9632293 L69.9723491,57.5202321 L60.1605658,57.6535565 C61.1238186,56.5525139 61.9888326,55.369818 62.7568831,54.1182271 L62.7568831,54.1182271 Z M67.5042528,47.7390688 L78.3673213,41.2527407 C78.2422898,47.5980894 76.5569163,53.5645161 73.6697092,58.7839435 L67.5042528,47.7390688 Z M67.5042528,33.2609312 L73.6697092,22.2173324 C76.5569163,27.4354839 78.2422898,33.4019106 78.3673213,39.7472593 L67.5042528,33.2609312 Z M20.9070534,8.08430723 L20.7360918,20.734816 L8.08558314,20.9045016 C11.2617661,15.6697644 15.6710403,11.2604902 20.9070534,8.08430723 Z M8.08430723,60.0942225 L20.734816,60.2639082 L20.9070534,72.9156928 C15.6697644,69.7382339 11.2617661,65.3289597 8.08430723,60.0942225 Z M60.0929466,72.9156928 L60.2639082,60.265184 L72.9144169,60.0954984 C69.7382339,65.3302356 65.3289597,69.7395098 60.0929466,72.9156928 Z M47.0322581,9.14516129 L47.0322581,6.53225806 L49.6451613,6.53225806 L49.6451613,9.14516129 L47.0322581,9.14516129 Z M29.1731666,7.81638258 L31.4358541,6.50993097 L32.7423057,8.77261845 L30.4796182,10.0790701 L29.1731666,7.81638258 Z M16.6113281,19.1655431 L14.3486406,17.8590915 L15.6550923,15.596404 L17.9177797,16.9028556 L16.6113281,19.1655431 Z M6.53225806,31.3548387 L9.14516129,31.3548387 L9.14516129,33.9677419 L6.53225806,33.9677419 L6.53225806,31.3548387 Z M7.81638258,51.8268334 L6.50993097,49.5641459 L8.77261845,48.2576943 L10.0790701,50.5203818 L7.81638258,51.8268334 Z M16.9015799,63.0809445 L19.1642672,64.3873961 L17.8578156,66.6500834 L15.5951283,65.3436318 L16.9015799,63.0809445 Z M33.9677419,71.8548387 L33.9677419,74.4677419 L31.3548387,74.4677419 L31.3548387,71.8548387 L33.9677419,71.8548387 Z M51.8268334,73.1836174 L49.5641459,74.490069 L48.2576943,72.2273816 L50.5203818,70.9209299 L51.8268334,73.1836174 Z M64.3886719,61.8344569 L66.6513594,63.1409085 L65.3449077,65.403596 L63.0822203,64.0971444 L64.3886719,61.8344569 Z M74.4677419,49.6451613 L71.8548387,49.6451613 L71.8548387,47.0322581 L74.4677419,47.0322581 L74.4677419,49.6451613 Z M73.1836174,29.1731666 L74.490069,31.4358541 L72.2273816,32.7423057 L70.9209299,30.4796182 L73.1836174,29.1731666 Z M64.0971444,17.9190555 L61.8344569,16.6126039 L63.1409085,14.3499166 L65.403596,15.6563682 L64.0971444,17.9190555 Z M45.7258065,33.9677419 L48.3387097,33.9677419 L48.3387097,36.5806452 L45.7258065,36.5806452 L45.7258065,33.9677419 Z M35.2741935,36.5806452 L32.6612903,36.5806452 L32.6612903,33.9677419 L35.2741935,33.9677419 L35.2741935,36.5806452 Z M35.2741935,47.0322581 L32.6612903,47.0322581 L32.6612903,44.4193548 L35.2741935,44.4193548 L35.2741935,47.0322581 Z M45.7258065,44.4193548 L48.3387097,44.4193548 L48.3387097,47.0322581 L45.7258065,47.0322581 L45.7258065,44.4193548 Z" id="Shape"></path>
                </g>
            </g>
        </g>
    </g>
</svg>