<?xml version="1.0" encoding="utf-8"?>
<svg width="40px" height="40px" viewBox="0 0 40 40" version="1.1" xmlns:xlink="http://www.w3.org/1999/xlink" xmlns="http://www.w3.org/2000/svg">
  <desc>Created with Lunacy</desc>
  <defs>
    <linearGradient x1="0.5" y1="1" x2="0.5" y2="0" id="gradient_1">
      <stop offset="0" stop-color="#F9F6FC" />
      <stop offset="1" stop-color="#E4E9EA" />
    </linearGradient>
  </defs>
  <path d="M0 20C0 8.97146 8.9724 0 20 0C31.0276 0 40 8.97146 40 20C40 31.0285 31.0276 40 20 40C8.9724 40 0 31.0285 0 20ZM10.9722 3.61927L16.4252 6.66457L19.6283 1.30009C16.4954 1.3612 13.549 2.19348 10.9722 3.61927ZM23.5753 6.66457L20.3716 1.30009C23.5051 1.3612 26.4521 2.19348 29.029 3.6199L23.5753 6.66457ZM20 7.09677C20.1556 7.09677 20.3097 7.10465 20.4612 7.12008C21.147 7.14466 21.8214 7.21302 22.476 7.3406L20 3.19367L17.5239 7.3406C18.1785 7.21302 18.853 7.14466 19.5388 7.12008C19.6903 7.10465 19.8444 7.09677 20 7.09677ZM15.5241 3.21478L14.4067 3.85994L15.0519 4.97732L16.1693 4.33216L15.5241 3.21478ZM23.2256 4.51613L23.2256 3.22581L24.5159 3.22581L24.5159 4.51613L23.2256 4.51613ZM10.2398 10.2394L10.3243 3.99225C7.73858 5.56073 5.56116 7.73815 3.99268 10.3232L10.2398 10.2394ZM29.7603 10.24L36.0075 10.3238C34.4384 7.73878 32.2616 5.56136 29.6753 3.99225L29.7603 10.24ZM11.5298 10.2905L11.595 5.44576L15.8207 7.80526C14.2257 8.35371 12.7741 9.20332 11.5298 10.2905ZM24.1792 7.80526L28.4049 5.44576L28.4707 10.2911C27.2264 9.20332 25.7741 8.35371 24.1792 7.80526ZM30.5356 8.20376L31.653 8.84892L32.2982 7.73154L31.1808 7.08638L30.5356 8.20376ZM8.20331 9.46447L7.08594 8.8193L7.7311 7.70193L8.84848 8.34709L8.20331 9.46447ZM23.226 11.6129C23.226 12.0432 23.1362 12.4625 22.9731 12.8535C22.5758 12.6878 22.1597 12.5586 21.7319 12.4606C21.8582 12.2033 21.9357 11.9182 21.9357 11.6129C21.9357 10.5459 21.0672 9.67742 20.0002 9.67742C18.9332 9.67742 18.0647 10.5459 18.0647 11.6129C18.0647 11.9182 18.1422 12.2033 18.2686 12.46C17.8408 12.558 17.4252 12.6871 17.0274 12.8528C16.8642 12.4625 16.7744 12.0432 16.7744 11.6129C16.7744 9.8343 18.2216 8.3871 20.0002 8.3871C21.7788 8.3871 23.226 9.8343 23.226 11.6129ZM15.5296 12.2574C15.4994 12.0451 15.484 11.8296 15.484 11.6129C15.484 10.6348 15.8002 9.73097 16.3304 8.99099C14.8331 9.49156 13.4751 10.2904 12.3174 11.3155C13.2187 11.2305 14.153 11.4097 14.9951 11.8955C15.1828 12.0038 15.3614 12.1245 15.5296 12.2574ZM27.6825 11.3149C26.5248 10.2904 25.1667 9.49156 23.6694 8.99099C24.1996 9.73097 24.5159 10.6348 24.5159 11.6129C24.5159 11.8296 24.5005 12.0451 24.4696 12.2574C24.6384 12.1245 24.8171 12.0032 25.0048 11.8948C25.8469 11.4091 26.7812 11.2295 27.6825 11.3149ZM19.355 11.6129C19.355 11.2569 19.6448 10.9677 20.0001 10.9677C20.3555 10.9677 20.6453 11.2569 20.6453 11.6129C20.6453 11.9689 20.3555 12.2581 20.0001 12.2581C19.6448 12.2581 19.355 11.9689 19.355 11.6129ZM1.30029 19.6283L6.66477 16.4252L3.6201 10.9709C2.19369 13.5478 1.36141 16.4948 1.30029 19.6283ZM33.3354 16.4251L36.3801 10.9715C37.8059 13.5484 38.6382 16.4948 38.6999 19.6283L33.3354 16.4251ZM9.08572 13.1489C8.99342 13.2762 8.90584 13.4091 8.82582 13.5484C8.79149 13.607 8.76503 13.6678 8.73415 13.7276C8.36306 14.3911 8.05592 15.0923 7.80579 15.8206L5.44629 11.5949L10.2916 11.5291C9.84775 12.0353 9.44578 12.5769 9.08572 13.1489ZM31.1745 13.5484C31.2082 13.607 31.2353 13.6684 31.2662 13.7276C31.6373 14.3911 31.9444 15.0923 32.1958 15.8213L34.5553 11.5956L29.71 11.5297C30.1526 12.036 30.5545 12.5775 30.9146 13.1489C31.0069 13.2762 31.0938 13.4091 31.1745 13.5484ZM28.8762 18.6C28.5013 18.8162 28.093 18.9504 27.6706 19.0039C27.6135 18.5651 27.5266 18.1367 27.3997 17.7246C27.6835 17.7051 27.9679 17.6348 28.231 17.4833L28.2316 17.4833C29.1556 16.949 29.4731 15.7633 28.9401 14.8387C28.4071 13.9148 27.2213 13.5969 26.2955 14.1296C26.0299 14.284 25.8208 14.4953 25.6607 14.7354C25.3646 14.4169 25.0427 14.1246 24.6968 13.8593C24.9551 13.5194 25.2755 13.229 25.6503 13.0122C27.1407 12.1522 29.0305 12.6285 29.9576 14.0549C30.0046 14.1337 30.0556 14.2102 30.1006 14.2909C30.915 15.8175 30.3848 17.7284 28.8762 18.6ZM14.3492 13.0128C12.8595 12.1535 10.9691 12.6298 10.0419 14.0562C9.99501 14.135 9.94461 14.2115 9.89861 14.2921C9.0846 15.8175 9.61478 17.729 11.1234 18.6007C11.4967 18.8168 11.9072 18.951 12.329 19.0045C12.386 18.5663 12.473 18.1373 12.5999 17.7252C12.3154 17.7057 12.0316 17.6355 11.7686 17.4839C10.844 16.9497 10.5258 15.7639 11.0595 14.8393C11.5931 13.9154 12.7795 13.5982 13.7034 14.1302L13.7041 14.1302C13.9696 14.2846 14.1794 14.4963 14.3388 14.736C14.6349 14.4175 14.9569 14.1252 15.3028 13.8599C15.0445 13.5194 14.7238 13.229 14.3492 13.0128ZM21.8161 19.3548L26.4188 19.3548C26.1155 16.3117 23.6883 13.8845 20.6445 13.5805L20.6445 18.1833C21.1911 18.378 21.6214 18.8083 21.8161 19.3548ZM19.3549 13.5811L19.3549 18.1839C18.8083 18.3786 18.378 18.8089 18.1833 19.3555L13.5806 19.3555C13.8846 16.3117 16.3118 13.8845 19.3549 13.5811ZM36.1398 14.4065L36.785 15.5239L35.6676 16.169L35.0225 15.0517L36.1398 14.4065ZM12.1781 15.4839C12.0001 15.7923 12.1066 16.1876 12.4143 16.3653C12.7212 16.5433 13.1174 16.4368 13.2954 16.129C13.4734 15.8213 13.3679 15.4253 13.0595 15.2476C12.958 15.189 12.8472 15.1613 12.7382 15.1613C12.5142 15.1613 12.2975 15.2775 12.1781 15.4839ZM26.9403 15.2476C27.0417 15.189 27.1526 15.1613 27.2622 15.1613C27.4856 15.1613 27.7029 15.2775 27.8223 15.4839C28.0003 15.7923 27.8939 16.1876 27.5861 16.3653C27.2786 16.5439 26.883 16.4368 26.7056 16.129C26.527 15.8206 26.6325 15.4253 26.9403 15.2476ZM4.51591 15.4839L3.22559 15.4839L3.22559 16.7742L4.51591 16.7742L4.51591 15.4839ZM16.1289 18.0645L17.4192 18.0645L17.4192 16.7742L16.1289 16.7742L16.1289 18.0645ZM22.5806 16.7742L23.8709 16.7742L23.8709 18.0645L22.5806 18.0645L22.5806 16.7742ZM3.19434 20L7.34063 22.4761C7.18375 21.6743 7.09681 20.8471 7.09681 20C7.09681 19.1529 7.18375 18.3257 7.34126 17.5239L3.19434 20ZM32.6593 17.5239L36.8056 20L32.6587 22.4761C32.8162 21.6743 32.9031 20.8471 32.9031 20C32.9031 19.1529 32.8162 18.3257 32.6593 17.5239ZM8.38721 20C8.38721 19.198 8.46911 18.4148 8.62473 17.6581C8.99961 18.4936 9.6265 19.2251 10.4789 19.7174C10.668 19.8264 10.8645 19.9181 11.0652 19.9981C10.8639 20.0781 10.6686 20.1723 10.4789 20.2819C9.6265 20.7743 9.00024 21.5058 8.62473 22.3412C8.46911 21.5852 8.38721 20.802 8.38721 20ZM28.936 19.9987C29.1367 20.0788 29.332 20.1736 29.521 20.2826C30.3735 20.7743 31.0004 21.5058 31.3752 22.3419C31.5309 21.5852 31.6128 20.802 31.6128 20C31.6128 19.198 31.5309 18.4148 31.3752 17.6588C30.9997 18.4942 30.3735 19.2257 29.521 19.7181C29.3326 19.8271 29.1361 19.9187 28.936 19.9987ZM19.355 20C19.355 20.356 19.6448 20.6452 20.0001 20.6452C20.3555 20.6452 20.6453 20.356 20.6453 20C20.6453 19.644 20.3555 19.3548 20.0001 19.3548C19.6448 19.3548 19.355 19.644 19.355 20ZM6.66477 23.5748L3.61947 29.0285C2.19369 26.4516 1.36141 23.5052 1.30029 20.3717L6.66477 23.5748ZM38.6999 20.3717L33.3354 23.5748L36.3801 29.0291C37.8059 26.4516 38.6382 23.5052 38.6999 20.3717ZM20.645 21.8161L20.645 26.4188C23.6881 26.1155 26.1153 23.6883 26.4193 20.6445L21.8166 20.6445C21.6219 21.1911 21.1916 21.6214 20.645 21.8161ZM18.1838 20.6452L13.5811 20.6452C13.8844 23.6883 16.3116 26.1155 19.3554 26.4195L19.3554 21.8167C18.8088 21.622 18.3785 21.1917 18.1838 20.6452ZM29.9576 25.9444C29.0305 27.3708 27.1413 27.8472 25.6503 26.9872C25.2755 26.771 24.9551 26.4806 24.6968 26.1401C25.0427 25.8748 25.3646 25.5825 25.6607 25.264C25.8201 25.5037 26.0299 25.7154 26.2955 25.8698L26.2961 25.8698C26.6001 26.0446 26.9325 26.1278 27.2601 26.1278C27.9298 26.1278 28.5819 25.7806 28.9401 25.1607C29.4737 24.2361 29.1556 23.0503 28.231 22.5161C27.9686 22.3652 27.6847 22.2896 27.4009 22.2697C27.5272 21.8586 27.6135 21.4318 27.6706 20.9955C28.093 21.049 28.5029 21.1832 28.8762 21.3993C30.3848 22.271 30.915 24.1825 30.1006 25.7079C30.0556 25.7891 30.0046 25.8657 29.9576 25.9444ZM11.1238 21.3999C11.4977 21.1838 11.9076 21.0503 12.3294 20.9967C12.3864 21.433 12.4727 21.8599 12.599 22.2703C12.3152 22.2896 12.0314 22.3658 11.7696 22.5173L11.769 22.5173C10.845 23.0516 10.5275 24.2373 11.0605 25.1619C11.4187 25.7819 12.0701 26.129 12.7405 26.129C13.0681 26.129 13.4005 26.0459 13.7051 25.871C13.9706 25.7167 14.1798 25.5053 14.3398 25.2652C14.636 25.5837 14.9579 25.8761 15.3038 26.1413C15.0455 26.4812 14.7251 26.7717 14.3502 26.9884C12.8586 27.8471 10.9701 27.3715 10.043 25.9457C9.99603 25.8672 9.94499 25.7898 9.89932 25.7097C9.08499 24.1825 9.61517 22.2716 11.1238 21.3999ZM17.4192 23.2258L16.1289 23.2258L16.1289 21.9355L17.4192 21.9355L17.4192 23.2258ZM23.8709 21.9355L22.5806 21.9355L22.5806 23.2258L23.8709 23.2258L23.8709 21.9355ZM35.4839 24.5161L36.7742 24.5161L36.7742 23.2258L35.4839 23.2258L35.4839 24.5161ZM27.8219 24.5161C27.9999 24.2084 27.894 23.8124 27.5856 23.6347C27.2772 23.4555 26.8825 23.5626 26.7051 23.871C26.5271 24.1787 26.6327 24.5747 26.9411 24.7524C27.2489 24.9304 27.6445 24.8245 27.8219 24.5161ZM13.0595 24.7524C12.7511 24.9304 12.3554 24.8239 12.1781 24.5161C12.0001 24.2077 12.1066 23.8124 12.4143 23.6347C12.7227 23.4573 13.1181 23.5638 13.2948 23.871C13.4728 24.1794 13.3673 24.5747 13.0595 24.7524ZM3.86001 25.5935L3.21484 24.4761L4.33222 23.831L4.97738 24.9483L3.86001 25.5935ZM8.7343 26.2724C8.3632 25.6089 8.05543 24.9077 7.8053 24.1794L5.4458 28.4051L10.2911 28.4709C9.81608 27.9272 9.38922 27.3431 9.00962 26.7251C8.94788 26.6343 8.88141 26.5483 8.82597 26.4516C8.79226 26.393 8.76517 26.3316 8.7343 26.2724ZM30.9911 26.7251C31.0522 26.6343 31.1187 26.5483 31.1748 26.4516C31.2091 26.393 31.2356 26.3322 31.2664 26.2724C31.6375 25.6089 31.9447 24.9077 32.1948 24.1794L34.5543 28.4051L29.709 28.4709C30.1847 27.9272 30.6118 27.3431 30.9911 26.7251ZM17.0274 27.1465C16.8642 27.5375 16.7744 27.9568 16.7744 28.3871C16.7744 30.1657 18.2216 31.6129 20.0002 31.6129C21.7788 31.6129 23.226 30.1657 23.226 28.3871C23.226 27.9568 23.1362 27.5375 22.9731 27.1472C22.5752 27.3129 22.1597 27.442 21.7319 27.54C21.8582 27.7967 21.9357 28.0818 21.9357 28.3871C21.9357 29.4541 21.0672 30.3226 20.0002 30.3226C18.9332 30.3226 18.0647 29.4541 18.0647 28.3871C18.0647 28.0818 18.1422 27.7967 18.2686 27.5394C17.8408 27.4414 17.4246 27.3122 17.0274 27.1465ZM16.3303 31.009C14.8308 30.5078 13.4715 29.7077 12.3135 28.6813C12.4568 28.6949 12.5998 28.709 12.7444 28.709C13.5102 28.709 14.2858 28.514 14.9949 28.1045C15.1827 27.9962 15.3613 27.8749 15.5301 27.7419C15.4993 27.9549 15.4838 28.1704 15.4838 28.3871C15.4838 29.3652 15.8001 30.269 16.3303 31.009ZM20.6453 28.3871C20.6453 28.7431 20.3555 29.0323 20.0001 29.0323C19.6448 29.0323 19.355 28.7431 19.355 28.3871C19.355 28.0311 19.6448 27.7419 20.0001 27.7419C20.3555 27.7419 20.6453 28.0311 20.6453 28.3871ZM24.516 28.3871C24.516 28.1704 24.5006 27.9549 24.4704 27.7426C24.6386 27.8755 24.8172 27.9962 25.0049 28.1045C25.7147 28.5141 26.4903 28.7091 27.2554 28.7091C27.4 28.7091 27.5431 28.6949 27.6864 28.6813C26.5284 29.7077 25.1684 30.5084 23.6689 31.0096C24.1998 30.269 24.516 29.3652 24.516 28.3871ZM3.99219 29.6762L10.2394 29.76L10.3244 36.0078C7.73809 34.4386 5.5613 32.2612 3.99219 29.6762ZM29.7597 29.7606L29.6753 36.0078C32.261 34.4393 34.4384 32.2618 36.0069 29.6768L29.7597 29.7606ZM11.5951 34.5542L15.8208 32.1947C14.2259 31.6463 12.7736 30.7967 11.5293 29.7089L11.5951 34.5542ZM28.4049 34.5542L28.4701 29.7095C27.2258 30.7967 25.7741 31.6463 24.1792 32.1947L28.4049 34.5542ZM31.797 30.5355L32.9144 31.1807L32.2692 32.2981L31.1519 31.6529L31.797 30.5355ZM9.46371 31.7962L8.34633 31.1511L7.70117 32.2685L8.81855 32.9136L9.46371 31.7962ZM19.5388 32.8799C19.6903 32.8954 19.8444 32.9032 20 32.9032C20.1556 32.9032 20.3097 32.8954 20.4612 32.8799C21.147 32.8553 21.8214 32.787 22.476 32.6594L20 36.8063L17.5239 32.6594C18.1785 32.787 18.853 32.8553 19.5388 32.8799ZM16.4243 33.3354L19.6281 38.6999C16.4946 38.6382 13.5476 37.8059 10.9707 36.3801L16.4243 33.3354ZM29.0277 36.3807L23.5747 33.3354L20.3716 38.6999C23.5045 38.6388 26.4508 37.8065 29.0277 36.3807ZM24.4762 36.7852L25.5936 36.1401L24.9484 35.0227L23.8311 35.6678L24.4762 36.7852ZM16.7742 35.4839L16.7742 36.7742L15.4839 36.7742L15.4839 35.4839L16.7742 35.4839Z" id="Shape" fill="url(#gradient_1)" fill-rule="evenodd" stroke="none" />
</svg>