<?xml version="1.0" encoding="utf-8"?>
<svg width="34px" height="26px" viewBox="0 0 34 26" version="1.1"
    xmlns:xlink="http://www.w3.org/1999/xlink"
    xmlns="http://www.w3.org/2000/svg">
    <desc>Created with Lunacy</desc>
    <path d="M13.3423 0.634698C12.6495 -0.0813727 11.8875 -0.191536 11.0562 0.304205C3.68537 4.93112 0 10.577 0 17.2419C0 19.941 0.748159 22.0754 2.2445 23.6452C3.74084 25.2151 5.54196 26 7.64792 26C9.86472 26 11.6381 25.2977 12.9682 23.8931C14.2983 22.4885 14.9633 20.6295 14.9633 18.316C14.9633 16.3331 14.4368 14.7082 13.3839 13.4413C12.3309 12.1744 11.0562 11.541 9.5599 11.541C8.78402 11.541 8.47922 11.0177 8.64548 9.97111C8.81174 8.81438 9.22738 7.74029 9.89242 6.74881C10.5575 5.75733 11.7213 4.43537 13.3839 2.7829C14.0489 2.06683 14.035 1.35077 13.3423 0.634698ZM32.4624 0.634698C31.7697 -0.0813727 31.0077 -0.191536 30.1764 0.304205C22.8055 4.93112 19.1201 10.577 19.1201 17.2419C19.1201 19.941 19.8544 22.0754 21.3231 23.6452C22.7917 25.2151 24.6067 26 26.768 26C28.9294 26 30.6751 25.2977 32.0052 23.8931C33.3353 22.4885 34.0003 20.6295 34.0003 18.316C34.0003 16.3331 33.4877 14.7082 32.4624 13.4413C31.4371 12.1744 30.1764 11.541 28.68 11.541C27.9041 11.541 27.5993 11.0177 27.7656 9.97111C27.8764 8.81438 28.2644 7.74029 28.9294 6.74881C29.5944 5.75733 30.7583 4.43537 32.4209 2.7829C33.1413 2.06683 33.1552 1.35077 32.4624 0.634698Z" id="“" fill="#00355F" fill-opacity="0.6" fill-rule="evenodd" stroke="none" />
</svg>