<?xml version="1.0" encoding="UTF-8"?>
<svg width="714px" height="714px" viewBox="0 0 714 714" version="1.1" xmlns="http://www.w3.org/2000/svg" xmlns:xlink="http://www.w3.org/1999/xlink">
    <!-- Generator: sketchtool 59.1 (101010) - https://sketch.com -->
    <title>A87C78F7-E72B-4E5B-9AB0-E22EF4B68890</title>
    <desc>Created with sketchtool.</desc>
    <g id="Page-1" stroke="none" stroke-width="1" fill="none" fill-rule="evenodd" opacity="0.02">
        <g id="Homepage" transform="translate(-689.000000, -4582.000000)" fill="#000000" fill-rule="nonzero">
            <g id="Group-6" transform="translate(37.000000, 3947.000000)">
                <g id="Group-3" transform="translate(652.000000, 635.000000)">
                    <g id="pattern-(1)">
                        <path d="M357,0 C160.157415,0 0,160.140547 0,357 C0,553.859453 160.157415,714 357,714 C553.842585,714 714,553.859453 714,357 C714,160.140547 553.842585,0 357,0 Z M643,184 L531.517836,182.504502 L530,71 C576.153425,99.004031 614.998755,137.864472 643,184 Z M150,357.00565 C150,342.619535 151.468063,328.572447 154.257381,315 C160.976591,329.985065 172.212917,343.105475 187.49206,351.937172 C190.879897,353.892237 194.403247,355.536526 198,356.971747 C194.391955,358.406969 190.891189,360.096462 187.49206,362.062828 C172.212917,370.894523 160.987883,384.014933 154.257381,399 C151.468063,385.438854 150,371.391765 150,357.00565 Z M130.988758,401 L57,357 L131,313 C128.189304,327.246819 126.6378,341.947074 126.6378,357 C126.6378,372.052926 128.189304,386.753181 130.988758,401 Z M515.417245,331.766547 C508.742297,335.637177 501.472775,338.040805 493.95084,339 C492.935575,331.14025 491.387436,323.466697 489.126928,316.086545 C494.180818,315.736722 499.245924,314.478484 503.929605,311.76453 L503.940823,311.76453 C520.392605,302.195158 526.046678,280.957473 516.555913,264.397268 C507.065148,247.84835 485.952122,242.155249 469.466686,251.69641 C464.738131,254.461146 461.013622,258.247142 458.164149,262.546588 C452.891502,256.842204 447.158901,251.606133 441,246.855302 C445.599543,240.76724 451.304098,235.565022 457.979046,231.683107 C484.516168,216.279579 518.165752,224.810764 534.673625,250.359181 C535.509397,251.76976 536.418087,253.140843 537.220202,254.585277 C551.719982,281.927951 542.279699,316.154253 515.417245,331.766547 L515.417245,331.766547 Z M492.245391,421.549182 C497.745676,424.714388 499.633414,431.768755 496.459093,437.251744 C493.296008,442.745957 486.239463,444.631611 480.750415,441.460794 C475.250131,438.295587 473.368011,431.24122 476.542332,425.758232 C479.705418,420.264019 486.745107,418.355916 492.245391,421.549182 L492.245391,421.549182 Z M233.259909,441.461747 C227.759135,444.63564 220.701963,442.736921 217.538597,437.248614 C214.363994,431.749071 216.263138,424.699096 221.752673,421.530819 C227.253447,418.368161 234.304999,420.266879 237.457129,425.743952 C240.631732,431.243495 238.749445,438.29347 233.259909,441.461747 Z M221.749964,292.462307 C216.263014,289.295184 214.364764,282.247776 217.537873,276.750236 C219.666383,273.072106 223.530275,271 227.523338,271 C229.466516,271 231.443391,271.494161 233.251782,272.538637 C238.749965,275.70576 240.631365,282.764399 237.458256,288.250708 C234.285148,293.737017 227.220068,295.635045 221.749964,292.462307 Z M480.734748,272.538303 C482.543373,271.494054 484.520504,271 486.47517,271 C490.457516,271 494.333141,273.071657 496.461928,276.748989 C499.635448,282.245336 497.736953,289.291215 492.24929,292.457652 C486.767244,295.640928 479.712481,293.732084 476.550196,288.246966 C473.365442,282.750618 475.247087,275.704739 480.734748,272.538303 Z M472,345 L389.897817,345 C386.42515,335.250682 378.749317,327.57485 369,324.102182 L369,242 C423.292744,247.422531 466.588707,290.718494 472,345 L472,345 Z M369,506.5 C369,512.845214 363.833984,518 357.5,518 C351.166016,518 346,512.845214 346,506.5 C346,500.154786 351.166016,495 357.5,495 C363.833984,495 369,500.154786 369,506.5 Z M357.5,368 C351.166016,368 346,362.845214 346,356.5 C346,350.154786 351.166016,345 357.5,345 C363.833984,345 369,350.154786 369,356.5 C369,362.845214 363.833984,368 357.5,368 Z M346,207.5 C346,201.154786 351.166016,196 357.5,196 C363.833984,196 369,201.154786 369,207.5 C369,213.845214 363.833984,219 357.5,219 C351.166016,219 346,213.845214 346,207.5 Z M422,161 C448.863647,169.888224 473.229139,184.073584 494,202.26396 C477.829814,200.748095 461.066175,203.936444 445.958553,212.56177 C442.589999,214.485968 439.385352,216.639502 436.355915,219 C436.909805,215.229915 437.18675,211.403896 437.18675,207.555501 C437.18675,190.187386 431.512207,174.139357 422,161 Z M415,207.779659 C415,215.487376 413.399659,222.997602 410.490966,230 C403.410156,227.032022 395.992432,224.718578 388.366943,222.963748 C390.618652,218.353787 392,213.247285 392,207.779659 C392,188.668359 376.518799,173.111864 357.5,173.111864 C338.481201,173.111864 323,188.668359 323,207.779659 C323,213.247285 324.381348,218.353787 326.633057,222.952462 C319.007568,224.707294 311.601073,227.020736 304.509034,229.988716 C301.600341,222.997602 300,215.487376 300,207.779659 C300,175.92185 325.796386,150 357.5,150 C389.203614,150 415,175.92185 415,207.779659 Z M276.81325,207.555501 C276.81325,211.403896 277.090195,215.229915 277.632781,219 C274.614648,216.639502 271.410001,214.497154 268.041447,212.572957 C252.933825,203.947632 236.170186,200.764875 220,202.275147 C240.770861,184.073584 265.136353,169.888224 292,161 C282.487793,174.139357 276.81325,190.187386 276.81325,207.555501 Z M345,242 L345,324.102183 C335.250682,327.57485 327.57485,335.250683 324.102182,345 L242,345 C247.422531,290.707256 290.718494,247.411293 345,242 Z M242,369 L324.102183,369 C327.57485,378.749318 335.250683,386.42515 345,389.897818 L345,472 C290.707256,466.577469 247.411293,423.281506 242,369 L242,369 Z M292,553 C265.122108,544.102304 240.75696,529.89731 220,511.676888 C222.569211,511.917365 225.132774,512.16903 227.724571,512.16903 C241.451494,512.16903 255.353462,508.707261 268.063995,501.436988 C271.429378,499.513162 274.631009,497.360043 277.657596,495 C277.104226,498.780542 276.827543,502.605824 276.827543,506.453476 C276.827543,523.818243 282.496745,539.863177 292,553 L292,553 Z M300,506.220341 C300,498.512624 301.600341,491.002398 304.509034,484 C311.589844,486.967978 319.007568,489.281422 326.633057,491.036252 C324.381348,495.646213 323,500.752715 323,506.220341 C323,525.331641 338.481201,540.888136 357.5,540.888136 C376.518799,540.888136 392,525.331641 392,506.220341 C392,500.752715 390.618652,495.646213 388.366943,491.047538 C395.992432,489.292706 403.398927,486.979264 410.490966,484.011284 C413.399659,491.002398 415,498.512624 415,506.220341 C415,538.07815 389.203614,564 357.5,564 C325.796386,564 300,538.07815 300,506.220341 L300,506.220341 Z M437.181369,506.442292 C437.181369,502.59464 436.904728,498.769358 436.362738,495 C439.377558,497.360043 442.578687,499.501978 445.943542,501.425804 C458.663373,508.696077 472.563162,512.157845 486.276641,512.157845 C488.868031,512.157845 491.431192,511.906181 494,511.665704 C473.246295,529.886125 448.873677,544.102306 422,553 C431.513055,539.851992 437.181369,523.807058 437.181369,506.442292 L437.181369,506.442292 Z M369,472 L369,389.897817 C378.749318,386.42515 386.42515,378.749317 389.897818,369 L472,369 C466.577469,423.292744 423.281506,466.588707 369,472 Z M431,138.878941 L506.818689,97 L508,183 C485.673787,163.693193 459.617117,148.61342 431,138.878941 Z M365.19542,127.065024 C362.502799,126.789577 359.765395,126.649042 357,126.649042 C354.234605,126.649042 351.497201,126.789577 348.80458,127.065024 C336.617812,127.503494 324.632569,128.723335 313,131 L357,57 L401,131 C389.367431,128.723335 377.382188,127.503494 365.19542,127.065024 L365.19542,127.065024 Z M206,183 L207.170179,97 L283,138.884388 C254.378681,148.620132 228.329492,163.701867 206,183 Z M179.328003,250.364288 C195.835589,224.814091 229.495808,216.282311 256.02125,231.675628 C262.690472,235.546527 268.400537,240.749108 273,246.848878 C266.841207,251.600042 261.108705,256.836479 255.836149,262.541259 C252.997944,258.247156 249.262282,254.455254 244.53381,251.690326 L244.522591,251.690326 C228.071097,242.159786 206.947219,247.841996 197.445402,264.392068 C187.943583,280.953427 193.608776,302.192593 210.07149,311.762631 C214.755089,314.476777 219.80889,315.7351 224.873908,316.084949 C222.61344,323.465616 221.065329,331.150988 220.050081,339 C212.539495,338.04074 205.230835,335.636944 198.58405,331.766045 C171.722061,316.152662 162.281944,281.912688 176.775863,254.590679 C177.594791,253.146145 178.492247,251.774967 179.328003,250.364288 Z M198.579642,382.222958 C205.237037,378.351905 212.53381,375.9593 220.04371,375 C221.058864,382.815466 222.595617,390.461645 224.844662,397.814391 C219.791324,398.15861 214.737985,399.524201 210.077248,402.238453 L210.066031,402.238453 C193.616042,411.808873 187.962585,433.048884 197.452316,449.610901 C203.829281,460.716199 215.427842,466.934715 227.362917,466.934715 C233.195849,466.934715 239.11291,465.44498 244.536414,462.31315 C249.264454,459.548112 252.988557,455.761702 255.83772,451.461784 C261.109793,457.166792 266.841771,462.403437 273,467.15479 C268.400958,473.243518 262.697024,478.446305 256.022803,482.328645 C229.466138,497.711289 195.842651,489.190455 179.336576,463.650526 C178.500896,462.245435 177.592304,460.857273 176.779059,459.423967 C162.280859,432.067013 171.720113,397.836963 198.579642,382.222958 L198.579642,382.222958 Z M283,575.121059 L207.181311,617 L206,531 C228.326213,550.306807 254.382883,565.38658 283,575.121059 Z M348.80458,586.934976 C351.497201,587.210423 354.234605,587.350958 357,587.350958 C359.765395,587.350958 362.502799,587.210423 365.19542,586.934976 C377.382188,586.496506 389.367431,585.276665 401,583 L357,657 L313,583 C324.632569,585.276665 336.617812,586.496506 348.80458,586.934976 L348.80458,586.934976 Z M508,531 L506.829821,617 L431,575.115612 C459.621319,565.379868 485.670508,550.298133 508,531 Z M534.673625,463.64082 C518.165752,489.189236 484.527385,497.720421 457.979046,482.316892 C451.304098,478.446263 445.599543,473.244044 441,467.144699 C447.158901,462.393866 452.891502,457.157795 458.164149,451.453412 C461.002405,455.747216 464.738131,459.538854 469.466686,462.303589 L469.477904,462.303589 C474.890782,465.435076 480.808487,466.924648 486.642054,466.924648 C498.567211,466.924648 510.178252,460.706814 516.555913,449.602732 C526.057895,433.042528 520.392605,411.804842 503.929605,402.23547 C499.257143,399.5328 494.203253,398.178643 489.149365,397.823177 C491.398655,390.459952 492.935575,382.81461 493.95084,375 C501.472775,375.959193 508.770345,378.362822 515.417245,382.233451 C542.279699,397.845746 551.719982,432.083333 537.220202,459.403438 C536.418087,460.859156 535.509397,462.230239 534.673625,463.64082 L534.673625,463.64082 Z M526.49029,362.062828 C523.100859,360.107763 519.598446,358.406969 516,356.971748 C519.587147,355.536527 523.112156,353.892238 526.49029,351.937172 C541.776626,343.105477 553.006944,329.985067 559.740615,315 C562.531246,328.561146 564,342.608235 564,356.99435 C564,371.380465 562.531246,385.427553 559.740615,399 C553.018242,384.003633 541.776626,370.883223 526.49029,362.062828 Z M583.011242,313 L657,357 L583,401 C585.810696,386.753181 587.3622,372.052926 587.3622,357 C587.3622,341.947074 585.810696,327.246819 583.011242,313 Z M558.621091,245.43544 C558.073142,244.372825 557.592289,243.270644 556.994018,242.219335 C555.562642,239.721061 554.019439,237.335829 552.381185,235.052338 C545.990312,224.799237 538.855796,215.083095 531,206 L617,207.181311 L575.121059,283 C570.65919,269.920795 565.20766,257.338986 558.621091,245.43544 L558.621091,245.43544 Z M420.359363,119 L363,23 C419.10163,24.093663 471.864346,38.9877856 518,64.5141231 L420.359363,119 Z M293.643569,119 L196,64.5028475 C242.142367,38.9877856 294.901485,24.093663 351,23 L293.643569,119 Z M161.596449,235.063642 C159.958194,237.347133 158.40381,239.732365 156.983615,242.230639 C156.374163,243.281949 155.904492,244.372826 155.356544,245.446744 C148.769976,257.35029 143.318444,269.9321 138.878942,283 L97,207.181311 L183,206 C175.121838,215.083094 167.987321,224.799236 161.596449,235.063642 Z M119,293.651918 L23,351 C24.093663,294.89837 38.9877856,242.135654 64.5141231,196 L119,293.651918 Z M119,420.352256 L64.5028475,518 C38.9877856,471.86099 24.093663,419.105714 23,363 L119,420.352256 Z M138.878941,431 C143.318445,444.0679 148.781158,456.64971 155.367727,468.553256 C155.915675,469.615871 156.396529,470.718051 156.994798,471.769361 C157.97887,473.504588 159.158637,475.04764 160.254535,476.675476 C166.992068,487.765104 174.568299,498.244293 183,508 L97,506.818689 L138.878941,431 Z M293.640637,595 L351,691 C294.89837,689.895061 242.135654,675.00094 196,649.485877 L293.640637,595 Z M420.356431,595 L518,649.497152 C471.857633,675.012214 419.098515,689.906337 363,691 L420.356431,595 Z M553.756647,476.675476 C554.841363,475.04764 556.02113,473.504588 557.016384,471.769361 C557.625838,470.718051 558.095507,469.627174 558.643456,468.553256 C565.230025,456.64971 570.681555,444.0679 575.121059,431 L617,506.818689 L531,508 C539.442883,498.244293 547.024707,487.765104 553.756647,476.675476 L553.756647,476.675476 Z M595,420.348082 L691,363 C689.895061,419.10163 675.00094,471.853067 649.485877,518 L595,420.348082 Z M595,293.647744 L649.485877,196 C675.00094,242.13901 689.895061,294.894286 691,351 L595,293.647744 Z M184,71 L182.493257,182.504355 L71,184 C98.992786,137.85988 137.853227,98.9955719 184,71 Z M71,530 L182.482164,531.495498 L184,643 C137.846575,614.995969 99.0012445,576.135528 71,530 Z M530,643 L531.506743,531.495645 L643,530 C615.007214,576.14012 576.146773,615.004428 530,643 Z M415,81 L415,58 L438,58 L438,81 L415,81 Z M257,69.3472742 L276.652726,58 L288,77.6527258 L268.347274,89 L257,69.3472742 Z M146.652726,169 L127,157.652726 L138.347274,138 L158,149.347274 L146.652726,169 Z M58,276 L81,276 L81,299 L58,299 L58,276 Z M69.3472742,457 L58,437.347274 L77.6527258,426 L89,445.652726 L69.3472742,457 Z M149.347275,556 L169,567.347275 L157.652725,587 L138,575.652725 L149.347275,556 Z M299,633 L299,656 L276,656 L276,633 L299,633 Z M457,644.652726 L437.347274,656 L426,636.347274 L445.652726,625 L457,644.652726 Z M567.347274,545 L587,556.347274 L575.652726,576 L556,564.652726 L567.347274,545 Z M656,438 L633,438 L633,415 L656,415 L656,438 Z M644.652726,257 L656,276.652726 L636.347274,288 L625,268.347274 L644.652726,257 Z M564.652726,158 L545,146.652725 L556.347274,127 L576,138.347275 L564.652726,158 Z M403,299 L426,299 L426,322 L403,322 L403,299 Z M311,322 L288,322 L288,299 L311,299 L311,322 Z M311,415 L288,415 L288,392 L311,392 L311,415 Z M403,392 L426,392 L426,415 L403,415 L403,392 Z" id="Shape"></path>
                    </g>
                </g>
            </g>
        </g>
    </g>
</svg>