<?xml version="1.0" encoding="UTF-8"?>
<svg width="17px" height="13px" viewBox="0 0 17 13" version="1.1" xmlns="http://www.w3.org/2000/svg" xmlns:xlink="http://www.w3.org/1999/xlink">
    <!-- Generator: Sketch 59.1 (86144) - https://sketch.com -->
    <title>twitter</title>
    <desc>Created with Sketch.</desc>
    <g id="Page-1" stroke="none" stroke-width="1" fill="none" fill-rule="evenodd">
        <g id="Desktop-HD-Copy-4" transform="translate(-713.000000, -5501.000000)" fill="#fff" fill-rule="nonzero">
            <g id="Group" transform="translate(653.000000, 5501.000000)">
                <g id="twitter" transform="translate(60.000000, 0.000000)">
                    <path d="M16.2721088,1.49402922 C15.6599972,1.74883513 15.0126423,1.91819361 14.349966,1.99689286 C15.0479335,1.60101007 15.5699537,0.97495084 15.8175068,0.23687013 C15.1634385,0.606771396 14.4480505,0.867444003 13.7021327,1.00766883 C12.7655976,0.0554758401 11.3149865,-0.254461529 10.0425593,0.225764897 C8.77013207,0.705991323 7.93379047,1.87904692 7.93265306,3.18512662 C7.93008053,3.42916334 7.95600467,3.67271377 8.00994558,3.91126948 C5.32568689,3.78677468 2.82429602,2.57598003 1.13294558,0.582467532 C0.243041844,2.0362062 0.692180844,3.89996292 2.15808844,4.83642208 C1.63034854,4.82413445 1.11343168,4.69095749 0.650884354,4.44811039 L0.650884354,4.48305844 C0.65482282,5.99731246 1.77089157,7.30132875 3.32459524,7.60702597 C3.03906861,7.67992524 2.7445028,7.71552133 2.44895238,7.71284091 C2.23699096,7.71659783 2.02522896,7.69836975 1.81739116,7.65847727 C2.25936638,8.95345359 3.50815566,9.8421256 4.93451701,9.87670779 C3.75384222,10.758562 2.29751175,11.2370934 0.79835034,11.2357987 C0.531507256,11.2372142 0.264843577,11.2222984 0,11.1911429 C1.52551235,12.1291853 3.30294948,12.6255011 5.11757823,12.6201299 C7.64071211,12.6368088 10.0656014,11.6875635 11.8499604,9.98467659 C13.6343193,8.28178972 14.6292863,5.96732612 14.6123537,3.55887662 C14.6123537,3.41811364 14.6072687,3.28220455 14.6001497,3.14726623 C15.257908,2.69755176 15.8244545,2.13734933 16.2721088,1.49402922 Z" id="Shape"></path>
                </g>
            </g>
        </g>
    </g>
</svg>